<?xml version="1.0" standalone="no"?>
<!DOCTYPE svg PUBLIC "-//W3C//DTD SVG 20010904//EN"
 "http://www.w3.org/TR/2001/REC-SVG-20010904/DTD/svg10.dtd">
<svg version="1.0" xmlns="http://www.w3.org/2000/svg"
 width="667.000000pt" height="409.000000pt" viewBox="0 0 667.000000 409.000000"
 preserveAspectRatio="xMidYMid meet">

<g transform="translate(0.000000,409.000000) scale(0.100000,-0.100000)"
fill="#000000" stroke="none">
<path d="M0 2045 l0 -2045 3335 0 3335 0 0 1159 0 1160 -42 6 c-60 8 -110 14
-130 14 -10 1 -18 6 -18 12 0 8 27 9 95 4 l95 -7 0 61 c0 63 -4 67 -48 62 -6
-1 -20 3 -30 9 -16 11 -16 11 2 6 10 -4 25 -1 32 5 8 6 21 9 29 5 8 -3 15 -1
15 4 0 6 -14 10 -31 10 -27 0 -30 2 -19 15 7 8 21 15 31 15 16 0 19 8 19 51 0
46 -2 51 -20 46 -11 -3 -18 -1 -14 4 3 5 0 9 -5 9 -6 0 -11 -5 -11 -12 0 -6
-10 -2 -23 10 -27 26 -37 28 -37 7 0 -9 -9 -15 -22 -15 -21 -1 -21 -2 -5 -11
14 -8 16 -14 6 -25 -6 -7 -9 -24 -5 -37 5 -21 3 -22 -37 -19 -33 2 -39 1 -27
-8 12 -9 12 -13 2 -17 -10 -4 -10 -8 -1 -19 10 -12 9 -17 -1 -27 -10 -9 -13
-9 -17 1 -3 6 -19 12 -36 11 l-32 -1 34 -12 c19 -7 37 -18 39 -25 3 -10 0 -10
-16 -2 -25 13 -32 14 -32 2 0 -5 9 -13 20 -16 33 -10 -1 -37 -37 -29 l-28 6
23 -16 c31 -24 29 -44 -5 -40 -16 2 -22 1 -15 -2 6 -3 12 -12 12 -19 0 -9 -12
-12 -42 -9 -40 4 -41 3 -15 -7 15 -6 27 -15 27 -21 0 -13 -50 -1 -71 18 -26
23 -30 16 -9 -19 11 -17 20 -40 20 -49 0 -17 -1 -17 -18 0 -10 9 -17 22 -15
27 2 6 -10 18 -27 28 -22 14 -55 18 -130 20 -55 1 -100 5 -100 9 0 4 -8 4 -17
1 -12 -5 -15 -2 -10 10 3 9 2 17 -4 17 -6 0 -7 5 -4 10 3 6 -2 11 -12 11 -10
1 -4 5 12 9 17 4 22 8 13 9 -10 0 -18 7 -18 15 0 8 -16 23 -36 35 -47 28 -56
27 -21 -3 27 -24 34 -36 18 -36 -11 0 -143 117 -155 137 -16 28 -18 107 -6
201 7 51 17 95 21 98 5 3 9 13 9 24 0 10 16 32 35 49 41 36 77 39 149 15 95
-32 144 -111 134 -216 -3 -26 -1 -45 4 -42 4 3 8 13 8 23 0 11 9 38 20 62 11
24 20 56 20 72 0 15 5 27 10 27 12 0 12 2 1 -38 -12 -42 4 -42 18 1 6 17 28
71 48 120 35 85 37 87 69 87 27 0 34 4 34 19 0 13 8 21 24 23 22 3 23 5 12 26
l-12 22 -22 -20 c-25 -24 -42 -19 -42 12 0 19 -1 19 -20 -3 l-20 -24 5 48 c3
27 10 57 15 68 8 14 6 21 -11 29 -15 9 -20 19 -17 39 3 22 0 27 -15 26 -11 -1
-25 -8 -31 -17 -7 -9 -25 -15 -44 -14 -31 1 -43 11 -22 18 15 5 -2 25 -30 33
-21 7 -23 6 -13 -7 20 -23 5 -55 -29 -62 -42 -8 -50 -8 -43 4 3 6 -1 10 -9 10
-8 0 -17 9 -21 19 -6 20 -54 25 -67 6 -4 -5 -8 0 -8 12 0 12 6 23 13 26 8 3 6
9 -8 20 -10 8 -25 13 -32 10 -7 -3 -13 0 -13 6 0 6 6 11 14 11 15 0 30 29 21
38 -3 3 -13 -1 -21 -10 -21 -20 -61 -9 -182 49 -17 9 -52 16 -77 15 -31 0 -45
4 -45 13 0 8 7 11 20 8 11 -3 26 -1 33 5 7 6 37 14 66 18 43 6 52 4 46 -6 -6
-10 1 -12 33 -8 30 5 45 2 60 -12 24 -23 52 -9 52 25 0 26 -15 34 -22 13 -2
-6 -10 -8 -17 -4 -9 6 -9 11 -1 21 7 8 9 19 5 25 -3 5 0 10 8 10 8 0 17 7 21
15 3 8 2 15 -3 15 -4 0 -13 10 -18 23 -9 19 -8 26 6 34 20 13 8 27 -27 29
-116 7 -110 6 -77 13 17 3 30 11 30 16 0 22 -38 85 -51 85 -19 0 -27 19 -15
34 15 17 -13 30 -36 17 -12 -6 -23 -2 -40 15 -25 25 -31 49 -10 41 16 -6 52 7
52 19 0 5 4 15 9 23 7 11 4 13 -17 7 -17 -4 -25 -2 -23 7 4 22 30 57 43 57 7
0 13 7 13 15 0 8 -7 15 -16 15 -11 0 -13 6 -9 20 6 18 0 19 -151 18 -146 0
-157 -2 -162 -20 -2 -10 -10 -17 -16 -15 -6 2 -17 -2 -24 -10 -7 -7 -18 -13
-23 -13 -12 0 -12 17 1 25 6 3 10 12 10 20 0 22 -62 16 -68 -7 -5 -21 -18 -24
-25 -5 -4 9 -8 8 -16 -3 -9 -13 -12 -12 -26 5 -16 20 -16 20 -10 -2 5 -17 2
-20 -13 -16 -12 3 -25 -3 -33 -14 -14 -19 -47 -38 -62 -34 -4 0 -16 -3 -26 -9
-24 -12 -37 13 -15 31 8 6 12 14 9 17 -11 12 -48 12 -62 1 -27 -23 -25 1 3 25
l29 24 -310 1 -310 1 130 -44 c150 -50 229 -82 338 -137 143 -72 299 -178 371
-253 115 -119 156 -165 156 -172 0 -4 9 -17 20 -29 27 -29 38 -85 16 -85 -9 0
-16 -4 -16 -9 0 -4 -11 -6 -25 -3 -20 3 -24 1 -19 -11 3 -9 13 -18 22 -22 13
-5 14 -8 3 -14 -8 -5 -24 -3 -40 5 -36 19 -49 18 -56 -6 -8 -26 -25 -17 -18
10 3 11 0 20 -6 20 -6 0 -11 -6 -11 -14 0 -8 -5 -16 -12 -18 -7 -3 -9 -11 -4
-24 5 -10 9 -39 10 -63 1 -36 -3 -46 -24 -59 l-25 -16 19 21 c14 17 16 29 11
50 -4 15 -9 48 -10 73 -2 40 -5 45 -26 46 -28 2 -81 -45 -74 -66 6 -20 -14
-50 -22 -32 -2 6 -11 12 -19 12 -8 0 -14 4 -14 10 0 5 7 7 15 4 32 -13 13 8
-21 22 -33 14 -38 14 -56 -3 -15 -13 -19 -14 -16 -3 2 8 10 18 19 22 10 4 16
18 16 35 0 15 -2 22 -4 16 -3 -7 -9 -13 -15 -13 -6 0 -8 7 -5 14 4 10 1 13 -9
9 -31 -12 -2 25 43 53 l47 29 -39 3 c-21 2 -49 -2 -61 -9 -13 -6 -30 -9 -38
-6 -12 5 -16 0 -16 -18 0 -14 -5 -25 -11 -25 -5 0 -8 4 -5 9 4 5 3 16 0 25 -6
15 -8 15 -20 -1 -9 -12 -13 -14 -14 -5 0 19 -25 -7 -34 -36 -8 -23 3 -29 19
-13 6 6 11 -1 12 -20 1 -16 -2 -29 -7 -29 -20 0 -9 -27 15 -40 13 -7 22 -16
20 -20 -2 -3 10 -5 28 -3 30 3 31 3 8 -7 -19 -8 -22 -13 -12 -23 9 -9 14 -9
21 3 5 8 12 11 15 8 11 -11 -5 -28 -25 -28 -10 0 -22 5 -25 10 -4 7 -12 7 -25
0 -24 -13 -43 -13 -35 1 4 5 -2 18 -14 28 -11 10 -18 21 -14 25 3 3 1 6 -6 6
-7 0 -11 7 -8 15 7 17 -9 30 -18 14 -4 -6 -2 -16 4 -22 7 -7 5 -14 -7 -23 -15
-12 -14 -14 13 -15 18 -1 23 -3 12 -6 -24 -6 -17 -39 7 -35 11 2 15 -1 11 -7
-3 -6 -13 -11 -21 -11 -8 0 -14 -6 -15 -12 0 -7 -4 -3 -9 10 -6 14 -18 22 -34
22 -22 0 -25 -4 -22 -29 2 -23 -1 -29 -15 -28 -10 1 -20 8 -22 17 -5 20 -65
52 -129 70 -28 7 -48 18 -48 26 0 8 -9 14 -21 14 -11 0 -18 4 -15 9 3 5 -1 12
-10 15 -26 10 -34 7 -27 -11 4 -11 3 -14 -6 -9 -7 5 -20 1 -29 -7 -26 -22 -74
-28 -96 -12 -17 13 -17 15 -3 21 9 3 20 3 24 1 5 -3 9 3 9 14 0 12 -7 19 -19
19 -10 0 -27 4 -37 10 -18 9 -72 -10 -85 -30 -7 -11 31 -24 45 -15 5 3 10 1
10 -5 0 -6 5 -8 10 -5 6 4 8 11 5 16 -14 22 4 7 20 -17 16 -24 16 -26 -1 -39
-10 -7 -23 -11 -30 -8 -6 2 -16 -10 -22 -26 -6 -17 -16 -31 -23 -31 -7 0 -10
-3 -7 -6 13 -13 -24 -58 -81 -100 -43 -31 -61 -51 -61 -67 1 -64 31 -91 72
-63 31 22 34 21 47 -15 14 -40 14 -39 -4 -39 -8 0 -15 7 -15 16 0 11 -5 14
-16 10 -9 -3 -20 -6 -26 -6 -6 0 -8 -13 -4 -35 4 -22 3 -35 -4 -35 -5 0 -10 5
-10 11 0 6 -9 9 -20 6 -10 -3 -20 -1 -22 5 -2 5 -15 -2 -30 -15 l-26 -25 -31
32 c-22 23 -29 37 -25 54 5 16 2 22 -10 22 -10 0 -13 6 -10 15 9 21 -12 19
-36 -5 -11 -11 -20 -15 -20 -10 0 6 -4 10 -10 10 -12 0 -9 -22 5 -33 6 -6 6
-10 -3 -14 -6 -2 -10 -10 -6 -16 3 -7 -2 -3 -11 8 -9 11 -21 19 -27 17 -7 -2
-6 3 2 12 7 9 8 16 2 16 -5 0 -15 -7 -22 -15 -7 -9 -16 -12 -19 -8 -7 9 -48
33 -56 33 -3 0 -5 -8 -5 -17 0 -15 -2 -16 -10 -3 -5 8 -12 11 -16 7 -4 -3 -1
-13 5 -21 9 -11 9 -16 0 -21 -6 -4 -15 -2 -20 6 -6 10 -11 5 -19 -16 -11 -30
-12 -30 -28 -10 -22 27 -47 36 -60 23 -8 -8 -13 -7 -18 6 -6 15 -9 15 -30 1
-29 -19 -34 -19 -34 0 0 8 5 15 11 15 8 0 7 5 -2 16 -12 14 -14 13 -21 -7 -7
-17 -11 -20 -17 -11 -4 7 -12 12 -17 11 -20 -3 -28 2 -15 10 7 5 9 11 3 14 -5
4 -17 -13 -27 -37 -18 -43 -19 -44 -41 -29 -21 13 -25 13 -45 -6 -13 -12 -33
-21 -46 -21 -28 0 -31 -25 -6 -52 16 -18 9 -24 -21 -19 -5 1 -6 -5 -3 -14 4
-8 1 -15 -6 -15 -7 0 -3 -7 7 -15 11 -8 14 -15 7 -15 -7 0 -10 -4 -6 -10 3 -5
12 -7 20 -3 8 3 15 1 15 -5 0 -6 3 -19 7 -29 7 -17 6 -17 -11 0 -20 19 -32 22
-41 7 -3 -5 -15 -10 -26 -10 -10 0 -19 -5 -19 -11 0 -7 14 -10 35 -7 19 2 35
1 35 -3 0 -12 -27 -18 -50 -12 -20 5 -20 3 7 -24 l28 -30 42 30 c23 16 47 26
53 22 9 -6 9 -9 0 -15 -16 -10 -2 -33 16 -26 16 6 19 -19 4 -29 -15 -9 -12
-25 5 -25 8 0 15 -4 15 -10 0 -13 -23 -13 -36 0 -6 6 -19 7 -29 4 -16 -7 -17
-8 -2 -13 24 -9 6 -31 -27 -35 -15 -1 -31 -7 -37 -13 -17 -17 44 -13 63 4 12
11 28 14 49 9 29 -5 30 -4 18 11 -12 15 -12 16 4 10 10 -4 25 -7 33 -7 8 0 14
-7 14 -15 0 -8 4 -15 9 -15 5 0 8 8 6 18 -1 9 2 23 7 29 7 9 5 15 -8 20 -23 8
-54 42 -54 57 0 6 4 5 9 -2 6 -10 10 -8 14 8 4 15 11 21 21 17 11 -5 16 0 16
12 0 11 3 26 6 35 5 12 0 16 -17 16 l-24 0 24 19 c21 16 24 26 22 65 -2 41 1
46 23 52 14 3 30 12 37 20 13 16 59 19 59 4 0 -5 8 -10 17 -10 12 0 14 -3 6
-11 -7 -7 -8 -24 -1 -51 5 -23 7 -47 4 -54 -2 -6 2 -21 10 -32 8 -11 11 -27 8
-35 -9 -24 29 -26 43 -2 7 11 12 14 13 8 0 -20 28 -15 40 7 16 29 37 24 44
-10 5 -27 8 -29 25 -18 11 6 22 24 25 40 7 36 33 37 63 1 18 -22 22 -24 23
-10 0 9 5 17 11 17 6 0 9 -7 5 -15 -3 -8 -1 -15 4 -15 6 0 10 -7 10 -16 0 -11
-6 -15 -20 -11 -11 3 -20 1 -20 -4 0 -4 -16 -8 -35 -7 -19 1 -32 5 -29 10 3 4
0 8 -6 8 -7 0 -9 -8 -4 -22 3 -12 6 -48 5 -80 -1 -56 0 -58 24 -58 18 0 25 -5
25 -20 0 -11 -6 -20 -14 -20 -7 0 -21 -10 -29 -22 -12 -17 -16 -19 -16 -8 -1
9 -11 16 -23 17 -19 2 -20 0 -7 -7 35 -20 30 -100 -5 -100 -26 0 -105 -133
-86 -145 13 -8 13 -82 1 -89 -5 -4 -4 -17 2 -32 10 -21 17 -24 42 -19 26 5 27
4 11 -8 -17 -12 -17 -14 1 -45 10 -18 23 -30 30 -28 7 3 10 -1 7 -9 -8 -21 41
-48 72 -41 26 7 31 35 6 44 -7 2 -10 -2 -6 -11 3 -8 0 -18 -7 -23 -9 -5 -10
-2 -6 9 4 10 1 17 -6 17 -8 0 -6 4 3 10 8 5 11 10 5 10 -5 0 -3 6 3 12 10 10
15 10 22 -1 10 -17 40 -24 40 -10 0 5 -7 9 -16 9 -8 0 -12 5 -9 10 3 6 -1 10
-9 10 -9 0 -16 5 -16 11 0 14 42 1 56 -17 6 -8 23 -14 37 -14 20 0 25 -4 20
-16 -5 -15 -3 -15 20 1 19 12 30 14 44 6 17 -10 17 -10 -2 -11 -17 -1 -16 -3
8 -16 15 -8 27 -18 27 -23 0 -5 20 -14 44 -21 25 -7 47 -18 50 -26 3 -8 0 -11
-8 -8 -7 3 -13 -1 -14 -8 0 -7 -3 -22 -7 -33 -4 -14 3 -29 20 -47 23 -26 47
-70 50 -93 1 -5 5 -21 9 -33 6 -18 2 -30 -15 -48 -12 -13 -19 -27 -16 -31 4
-3 2 -12 -4 -19 -9 -10 -5 -27 16 -65 15 -29 29 -64 31 -78 7 -48 10 -56 28
-84 14 -20 22 -25 31 -17 10 8 18 4 34 -15 11 -15 23 -35 26 -45 8 -24 37 -33
75 -25 39 9 120 102 120 139 0 18 5 26 18 26 22 0 60 42 44 48 -7 2 -9 8 -6
14 4 6 1 14 -6 18 -15 9 16 44 63 74 25 15 27 21 22 59 -3 23 -11 55 -17 70
-13 32 0 48 32 40 25 -7 36 16 17 34 -17 17 -37 10 -37 -13 0 -8 -7 -14 -16
-14 -18 0 -9 18 18 38 10 7 16 17 13 22 -3 5 -1 11 4 14 5 3 11 -1 15 -9 8
-22 26 -18 26 5 0 12 -7 20 -17 20 -14 1 -12 6 10 25 27 24 64 35 52 15 -3 -5
-12 -10 -20 -10 -8 0 -16 -3 -18 -7 -8 -12 46 -13 60 -1 7 5 17 7 23 3 5 -3
10 1 10 10 0 12 -6 15 -21 10 -16 -5 -20 -3 -17 6 3 8 12 13 21 13 10 -1 13 4
10 14 -4 10 -2 13 5 8 7 -4 12 -1 12 8 0 16 34 31 50 21 5 -3 10 -1 10 4 0 12
-11 14 -47 11 -27 -2 -28 8 -6 55 11 23 22 34 31 30 8 -3 20 -1 27 5 8 7 18 5
31 -5 14 -11 16 -17 7 -23 -17 -11 -9 -48 10 -44 19 3 32 -14 17 -23 -5 -3
-10 -17 -10 -31 0 -13 -4 -24 -10 -24 -5 0 -10 5 -10 10 0 15 -27 12 -33 -4
-3 -8 2 -16 15 -19 14 -4 18 -11 13 -26 -4 -13 0 -23 12 -30 10 -6 15 -11 11
-11 -3 0 0 -21 8 -47 l14 -48 -21 28 c-11 15 -26 27 -32 27 -8 0 -7 -4 1 -12
18 -18 15 -33 -4 -17 -14 12 -16 10 -12 -16 3 -27 0 -30 -24 -28 -16 1 -28 -2
-28 -6 0 -16 33 -36 53 -33 12 2 17 -1 13 -7 -4 -6 -20 -11 -36 -11 -34 0 -47
-15 -29 -36 10 -13 16 -11 39 11 23 22 28 23 33 11 3 -8 2 -18 -3 -21 -11 -7
-14 -45 -4 -45 8 0 30 24 37 40 4 11 6 10 6 -4 1 -12 6 -16 17 -12 12 4 14 1
9 -14 -7 -23 -2 -25 26 -10 16 9 19 7 19 -8 0 -11 -12 -24 -27 -31 -15 -7 -44
-26 -64 -42 -21 -17 -46 -29 -56 -27 -13 2 -18 -4 -18 -21 0 -15 -8 -27 -20
-32 -20 -8 -20 -8 0 -9 18 -1 19 -1 3 -11 -10 -5 -18 -18 -18 -27 0 -11 -9
-18 -25 -18 -14 -1 -25 2 -25 7 0 5 9 9 20 9 11 0 20 5 20 10 0 15 -26 12 -40
-5 -7 -8 -23 -15 -35 -15 -19 0 -22 4 -18 23 3 12 2 19 -2 14 -5 -4 -16 0 -25
8 -10 9 -25 13 -34 9 -24 -9 -20 -19 10 -20 34 -2 41 -11 26 -34 -17 -28 -15
-33 12 -26 16 4 29 -1 42 -15 19 -21 19 -22 -5 -14 -19 6 -23 4 -18 -8 8 -22
-1 -26 -36 -16 -21 6 -35 5 -42 -3 -7 -8 -6 -9 3 -4 18 10 38 -4 21 -15 -11
-7 -10 -9 4 -9 12 0 17 -8 17 -27 1 -27 1 -28 17 -8 13 16 15 17 10 3 -9 -24
3 -22 44 7 45 34 237 208 238 217 1 7 38 50 83 99 9 10 36 23 60 30 24 6 38
14 31 16 -22 8 19 80 54 94 26 10 33 18 33 40 0 15 7 34 15 43 9 9 11 17 5 21
-6 4 -5 15 2 31 10 21 17 24 37 19 25 -6 25 -6 6 9 -20 15 -19 15 11 43 25 23
29 33 23 51 -5 14 -4 22 2 22 6 0 9 6 6 14 -3 7 3 28 14 45 10 17 19 38 19 46
0 8 5 15 11 15 7 0 9 10 7 25 -6 27 1 32 20 13 12 -12 16 4 15 49 -1 7 4 10 9
6 7 -4 9 6 6 26 -4 30 -3 32 18 28 13 -2 21 0 18 4 -3 5 -1 9 4 9 13 0 56 -58
62 -83 6 -21 6 -21 25 -2 12 12 30 19 45 17 19 -2 22 -1 10 7 -22 15 17 27 41
13 10 -7 20 -12 21 -12 7 0 0 68 -7 80 -5 8 -3 11 6 8 15 -5 45 25 93 91 l31
43 6 -28 c3 -16 4 -45 2 -64 -8 -65 -44 -255 -56 -290 -6 -19 -12 -37 -12 -40
-1 -3 -7 -18 -14 -35 -7 -16 -19 -46 -26 -65 -7 -19 -29 -70 -49 -113 -20 -42
-36 -81 -36 -86 0 -12 -219 -344 -237 -358 -8 -6 -12 -16 -9 -21 3 -5 -6 -14
-20 -21 -14 -6 -22 -16 -19 -21 3 -6 2 -10 -4 -10 -12 0 -141 -129 -141 -142
0 -5 9 -4 20 2 22 12 40 6 40 -12 0 -7 -6 -6 -15 2 -13 10 -15 9 -15 -9 0 -11
-4 -21 -10 -21 -5 0 -10 -6 -10 -13 0 -7 -9 -18 -20 -25 -18 -11 -20 -10 -20
17 0 16 6 31 13 34 6 2 10 7 7 10 -5 6 -57 -32 -126 -91 -18 -15 -44 -36 -58
-46 -28 -20 -35 -39 -12 -30 25 10 69 -39 69 -76 0 -19 -5 -36 -11 -38 -7 -2
-33 -21 -58 -42 -69 -56 -157 -76 -193 -42 -11 11 -11 19 5 49 11 19 35 48 54
64 35 29 30 41 -6 14 -10 -8 -25 -15 -33 -15 -8 0 -29 -12 -48 -26 -43 -33
-203 -114 -225 -114 -9 0 -20 -4 -23 -10 -3 -5 -17 -10 -31 -10 -34 0 -145
-38 -167 -57 -9 -9 -20 -14 -23 -11 -3 3 -22 2 -42 -4 -20 -5 -57 -11 -82 -14
-25 -3 -75 -14 -111 -24 -36 -11 -88 -23 -115 -26 -27 -3 -58 -9 -69 -14 -11
-5 -49 -11 -85 -14 -36 -3 -85 -9 -110 -13 -92 -16 -546 -5 -700 17 -199 27
-285 45 -350 70 -30 12 -73 28 -95 35 -68 22 -125 48 -250 115 -378 203 -740
590 -795 850 -11 48 -10 60 6 98 12 27 25 42 37 42 10 0 15 4 12 10 -3 5 2 10
12 10 18 0 61 74 55 93 -1 5 3 16 10 24 7 8 -18 -1 -56 -21 -37 -20 -73 -33
-79 -29 -7 4 -55 9 -107 10 -52 2 -103 3 -112 4 -10 0 -18 4 -18 9 0 5 -9 12
-21 15 -13 4 -18 12 -15 21 3 8 2 12 -4 9 -5 -3 -16 8 -25 24 -22 43 -18 61 5
26 18 -27 20 -28 20 -9 0 12 8 28 17 35 11 10 14 10 9 2 -4 -8 -2 -13 7 -13 8
0 18 7 21 15 4 12 14 14 39 10 25 -5 37 -2 52 14 18 21 18 22 0 34 -16 12 -15
14 14 14 17 0 31 -5 31 -11 0 -6 5 -4 11 4 8 11 12 12 16 3 7 -20 23 -15 23 6
0 13 8 21 23 23 12 2 26 13 32 26 5 12 15 22 22 22 7 0 13 4 13 9 0 5 9 11 20
14 15 4 20 14 20 37 0 17 -4 29 -10 25 -5 -3 -7 -12 -3 -21 4 -12 0 -14 -21
-8 -21 5 -25 3 -20 -9 3 -10 0 -15 -8 -13 -36 6 -58 19 -63 37 -11 35 -37 17
-49 -33 -5 -21 -12 -28 -31 -28 -13 0 -28 7 -33 16 -5 9 -15 14 -21 10 -6 -4
-9 -12 -6 -17 14 -22 -8 -29 -28 -8 -13 14 -22 18 -25 11 -6 -19 -18 -14 -30
12 -8 17 -8 26 0 28 5 2 11 17 12 33 1 17 5 36 9 43 5 7 3 12 -5 12 -18 1 30
39 65 52 15 6 26 12 24 15 -3 2 -23 -4 -46 -13 -47 -19 -63 -14 -29 8 29 19
88 31 88 18 0 -13 31 -12 50 1 12 8 10 9 -7 4 -36 -10 -35 11 2 25 29 11 32
16 22 31 -9 14 -9 26 0 50 11 27 9 35 -9 59 -20 27 -20 29 -3 46 16 17 16 18
0 30 -13 10 -14 17 -6 33 15 26 14 31 -4 31 -21 0 -31 30 -14 40 10 7 7 14
-14 30 -15 12 -27 27 -26 33 4 33 -2 47 -22 47 -13 0 -23 8 -26 21 -3 12 -11
18 -19 15 -8 -3 -14 -1 -14 4 0 6 7 10 15 10 31 0 13 26 -26 38 -41 13 -54 10
-54 -10 0 -20 -20 -19 -32 2 -11 16 -9 25 10 54 22 35 37 45 37 26 0 -5 -5
-10 -11 -10 -8 0 -8 -5 1 -15 7 -8 19 -15 26 -15 8 0 14 7 14 15 0 8 -4 15
-10 15 -5 0 -7 7 -4 15 4 11 0 15 -16 15 -16 0 -20 4 -16 16 6 16 -15 44 -32
44 -6 0 -12 6 -15 13 -3 8 -10 7 -26 -7 -25 -23 -28 -17 -3 11 9 11 23 18 30
16 7 -3 12 4 12 16 0 25 -8 26 -38 5 -12 -8 -22 -10 -22 -5 0 6 4 11 9 11 5 0
12 12 15 26 5 20 12 25 27 21 18 -5 20 -2 15 19 -4 14 -2 24 4 24 5 0 10 9 10
20 0 11 7 23 15 26 9 4 15 19 15 36 0 17 4 27 10 23 5 -3 10 1 10 11 0 13 -7
16 -34 11 -28 -4 -34 -3 -29 9 3 9 -1 14 -13 14 -9 0 -14 3 -11 7 4 3 20 6 36
5 29 -1 47 20 35 39 -3 5 2 12 10 15 23 9 19 26 -4 19 -12 -4 -20 -2 -20 5 0
6 4 9 9 5 15 -9 35 35 22 48 -7 7 -5 14 7 23 14 11 14 13 2 14 -11 0 -10 4 5
16 15 11 17 17 8 22 -14 9 8 33 42 46 16 6 17 9 5 16 -9 5 -19 5 -27 -2 -9 -7
-17 -7 -27 1 -9 7 -17 8 -20 2 -3 -5 -15 -7 -25 -4 -17 4 -18 8 -8 24 7 11 26
24 42 28 22 7 24 9 9 10 -11 1 -39 -8 -62 -19 -22 -11 -47 -20 -53 -20 -7 0
-3 9 9 20 12 11 29 20 40 20 22 0 72 22 72 33 0 4 -7 7 -15 7 -8 0 -15 5 -15
10 0 6 7 10 15 10 8 0 15 -4 15 -9 0 -5 8 -11 18 -15 9 -3 24 -9 32 -12 13 -5
13 -4 0 5 -20 14 -10 20 22 14 16 -3 25 -10 21 -16 -4 -6 2 -8 15 -5 26 7 30
-8 5 -16 -10 -3 -1 -4 20 -1 27 3 37 0 37 -11 0 -8 6 -14 13 -14 21 0 28 12
15 27 -19 23 -3 24 22 1 13 -13 33 -23 45 -23 11 -1 36 -9 54 -18 32 -16 33
-16 38 3 3 11 10 20 15 20 20 0 78 -42 72 -52 -4 -6 -3 -13 2 -17 17 -12 62
-86 68 -113 3 -15 2 -30 -4 -33 -5 -3 -10 -28 -10 -55 0 -27 -5 -52 -11 -56
-6 -3 -19 -26 -30 -51 -10 -24 -30 -59 -44 -77 -14 -18 -25 -37 -25 -43 0 -16
-73 -84 -80 -73 -3 5 -7 -23 -8 -63 -8 -206 -3 -254 27 -281 15 -14 17 -12 18
26 1 23 12 61 25 85 24 45 40 57 31 23 -3 -11 -1 -20 5 -20 5 0 10 11 10 25 0
35 9 42 26 20 13 -19 38 -13 34 8 -3 17 22 87 31 87 4 0 15 23 26 52 10 29 30
63 43 75 14 13 20 23 15 23 -6 0 -10 11 -9 25 1 17 10 28 29 36 15 6 27 18 27
25 0 8 5 14 10 14 24 0 6 22 -30 38 l-41 17 21 23 c12 12 33 22 48 22 19 0 23
-3 13 -9 -19 -12 -1 -19 37 -14 23 4 32 11 32 24 0 10 5 21 10 24 17 10 11 25
-7 18 -11 -4 -14 -3 -9 5 4 7 1 12 -8 12 -9 0 -16 4 -16 9 0 5 -16 15 -35 22
-22 8 -30 16 -23 20 14 9 67 0 84 -13 7 -5 23 -4 40 3 16 6 44 11 62 10 25 0
32 4 32 19 0 11 -7 20 -15 20 -7 0 -18 7 -23 16 -14 25 -35 8 -22 -17 8 -13 7
-19 0 -19 -18 0 -60 32 -60 45 0 7 -3 15 -7 18 -5 2 -2 2 5 0 26 -6 60 9 66
29 4 18 7 19 21 8 9 -7 13 -21 10 -31 -4 -13 -1 -19 9 -19 9 0 16 5 16 11 0 5
5 7 10 4 6 -3 10 -1 10 4 0 6 -4 11 -10 11 -5 0 -10 9 -10 20 0 11 -7 20 -15
20 -20 0 -19 17 3 29 16 10 16 10 -1 11 -13 0 -15 3 -8 13 47 57 74 87 82 87
5 0 17 6 26 14 165 132 229 174 384 250 94 45 175 78 319 129 8 3 -657 6
-1477 6 l-1493 1 0 -2045z m5444 2004 c-3 -5 -10 -7 -15 -3 -5 3 -7 10 -3 15
3 5 10 7 15 3 5 -3 7 -10 3 -15z m96 -14 c-7 -9 -15 -13 -17 -11 -6 6 20 36
26 30 2 -2 -2 -10 -9 -19z m-170 -15 c0 -5 -5 -10 -11 -10 -5 0 -7 5 -4 10 3
6 8 10 11 10 2 0 4 -4 4 -10z m-370 -19 c0 -6 -4 -13 -10 -16 -5 -3 -10 1 -10
9 0 9 5 16 10 16 6 0 10 -4 10 -9z m-3296 -371 c-6 -5 -24 21 -24 34 0 6 6 1
14 -10 8 -10 12 -21 10 -24z m-119 0 c3 -5 1 -10 -4 -10 -6 0 -11 5 -11 10 0
6 2 10 4 10 3 0 8 -4 11 -10z m4200 -46 c9 -4 14 -12 12 -18 -6 -19 -85 -23
-117 -6 -19 10 -70 4 -70 -9 0 -3 -13 -6 -30 -6 -16 0 -30 3 -30 8 0 4 1 7 3
7 1 0 27 9 57 20 53 19 131 21 175 4z m-3645 -19 c0 -8 -4 -15 -10 -15 -5 0
-10 7 -10 15 0 8 5 15 10 15 6 0 10 -7 10 -15z m3690 11 c0 -3 -4 -8 -10 -11
-5 -3 -10 -1 -10 4 0 6 5 11 10 11 6 0 10 -2 10 -4z m-830 -257 c0 -5 -4 -9
-10 -9 -5 0 -7 -7 -3 -16 5 -14 3 -14 -14 -3 -26 16 -19 49 8 42 10 -3 19 -9
19 -14z m900 -5 c0 -8 -4 -12 -10 -9 -5 3 -10 10 -10 16 0 5 5 9 10 9 6 0 10
-7 10 -16z m-140 -39 c0 -23 6 -39 19 -46 11 -7 16 -19 13 -31 -2 -10 1 -18 8
-18 8 0 11 -22 9 -70 -2 -77 9 -102 36 -80 12 10 19 10 28 1 9 -9 6 -13 -11
-18 -16 -4 -21 -11 -17 -21 3 -8 2 -18 -3 -21 -21 -15 -71 -101 -85 -147 -8
-28 -27 -74 -42 -103 -18 -37 -25 -61 -20 -79 6 -25 72 -132 88 -143 5 -3 2
-9 -6 -12 -8 -3 -30 5 -48 19 -18 13 -47 27 -65 30 -26 5 -36 14 -48 45 -9 21
-19 39 -23 39 -5 0 -9 12 -10 27 0 15 -6 29 -11 31 -6 2 -6 15 -1 35 4 18 12
49 17 70 6 21 15 44 22 52 8 9 10 28 6 50 -6 32 -4 37 23 53 34 19 45 38 34
55 -4 7 -6 22 -4 35 2 17 -3 22 -18 22 -24 0 -27 13 -7 32 12 12 12 19 -1 49
-14 35 -10 99 7 99 5 0 8 12 7 28 -2 21 2 27 17 27 11 0 21 6 24 13 2 6 17 12
33 12 26 0 29 -3 29 -35z m40 -25 c0 -5 -2 -10 -4 -10 -3 0 -8 5 -11 10 -3 6
-1 10 4 10 6 0 11 -4 11 -10z m-785 -20 c3 -6 -1 -7 -9 -4 -18 7 -21 14 -7 14
6 0 13 -4 16 -10z m305 -15 c7 -8 8 -15 2 -15 -5 0 -15 7 -22 15 -7 8 -8 15
-2 15 5 0 15 -7 22 -15z m-4064 -20 c-11 -8 -22 -12 -25 -9 -6 6 19 24 34 24
6 -1 1 -7 -9 -15z m3364 -80 c0 -8 -4 -17 -10 -20 -6 -3 -9 4 -8 19 2 25 18
26 18 1z m-200 -1 c0 -4 -13 -19 -29 -35 -22 -21 -29 -36 -28 -63 1 -21 6 -36
13 -36 7 0 17 -14 23 -31 14 -41 14 -41 -8 -34 -10 3 -23 -1 -30 -9 -6 -8 -21
-12 -31 -9 -11 3 -20 0 -20 -6 0 -6 -4 -11 -10 -11 -17 0 -11 52 7 65 15 11
16 16 4 38 -17 32 -7 61 24 75 14 7 30 23 35 37 6 15 17 25 30 25 11 0 20 -3
20 -6z m1577 -30 c-3 -3 -12 -4 -19 -1 -8 3 -5 6 6 6 11 1 17 -2 13 -5z m113
-32 c20 -17 30 -33 26 -40 -10 -17 -36 -15 -36 3 0 8 -10 17 -23 20 -14 4 -23
14 -23 26 0 26 16 24 56 -9z m40 12 c0 -8 -5 -12 -10 -9 -6 4 -8 11 -5 16 9
14 15 11 15 -7z m92 -16 c-8 -8 -9 -4 -5 13 4 13 8 18 11 10 2 -7 -1 -18 -6
-23z m-249 -8 c20 -8 37 -18 37 -22 0 -12 -75 -9 -87 3 -11 11 -6 43 6 37 3
-2 23 -10 44 -18z m-392 -37 c-8 -15 -10 -15 -11 -2 0 17 10 32 18 25 2 -3 -1
-13 -7 -23z m409 -13 c0 -5 -2 -10 -4 -10 -3 0 -8 5 -11 10 -3 6 -1 10 4 10 6
0 11 -4 11 -10z m150 6 c0 -2 -7 -9 -15 -16 -13 -11 -14 -10 -9 4 5 14 24 23
24 12z m-1676 -27 c-2 -4 -18 -7 -34 -7 -16 1 -27 5 -24 9 2 4 18 7 34 7 16
-1 27 -5 24 -9z m1571 -6 c20 -15 20 -15 -2 -10 -12 3 -23 1 -25 -3 -2 -4 -12
-4 -23 1 -19 7 -19 8 3 8 13 1 20 5 17 11 -9 15 7 11 30 -7z m120 -13 c-3 -5
-10 -10 -16 -10 -5 0 -9 5 -9 10 0 6 7 10 16 10 8 0 12 -4 9 -10z m25 -70 c0
-5 -2 -10 -4 -10 -3 0 -8 5 -11 10 -3 6 -1 10 4 10 6 0 11 -4 11 -10z m-2704
-15 c-2 -14 -16 -22 -16 -10 0 3 0 10 0 15 0 6 4 10 9 10 5 0 8 -7 7 -15z
m714 -4 c0 -11 -26 -22 -34 -14 -12 12 -5 23 14 23 11 0 20 -4 20 -9z m60 -5
c0 -8 -6 -16 -14 -19 -10 -4 -12 0 -9 14 6 22 23 26 23 5z m-425 -6 c-3 -5
-11 -10 -16 -10 -6 0 -7 5 -4 10 3 6 11 10 16 10 6 0 7 -4 4 -10z m-210 -10
c3 -5 1 -10 -4 -10 -6 0 -11 5 -11 10 0 6 2 10 4 10 3 0 8 -4 11 -10z m298 -6
c3 -4 0 -13 -8 -21 -8 -8 -15 -25 -15 -38 0 -27 -15 -41 -26 -24 -4 8 -3 9 4
5 7 -4 12 -2 12 3 0 6 -8 12 -17 12 -17 1 -17 2 0 6 10 3 17 14 17 27 0 31 17
46 33 30z m-2626 -20 c-3 -3 -12 -4 -19 -1 -8 3 -5 6 6 6 11 1 17 -2 13 -5z
m2778 -4 c-4 -6 -11 -7 -17 -4 -7 5 -9 1 -5 -9 3 -10 2 -17 -3 -17 -6 0 -10 2
-10 4 0 2 -3 11 -6 20 -5 12 0 16 21 16 15 0 24 -4 20 -10z m-2738 -6 c-3 -3
-12 -4 -19 -1 -8 3 -5 6 6 6 11 1 17 -2 13 -5z m2417 -35 c-4 -8 26 -23 39
-20 5 1 6 -3 3 -8 -7 -11 -46 -2 -46 10 0 5 -6 9 -14 9 -8 0 -17 3 -19 8 -3 4
5 7 18 7 13 0 21 -3 19 -6z m74 -54 c1 -1 -3 -7 -10 -13 -10 -8 -20 -5 -38 9
l-25 19 35 -7 c19 -3 36 -7 38 -8z m802 -60 c0 -9 -9 -15 -22 -15 -21 0 -21 0
-2 15 24 18 24 18 24 0z m-90 -16 c0 -5 -7 -9 -15 -9 -15 0 -20 12 -9 23 8 8
24 -1 24 -14z m319 0 c-13 -9 -29 -15 -36 -12 -23 9 -14 -9 19 -39 18 -16 26
-28 17 -28 -12 0 -12 -2 0 -9 10 -6 10 -10 1 -16 -14 -9 -22 -2 -50 50 -12 21
-18 41 -12 43 5 1 18 9 28 17 10 7 27 13 37 12 16 -1 15 -3 -4 -18z m1721 -14
c0 -14 -4 -25 -10 -25 -5 0 -10 11 -10 25 0 14 5 25 10 25 6 0 10 -11 10 -25z
m-3295 -15 c3 -5 1 -10 -4 -10 -6 0 -11 5 -11 10 0 6 2 10 4 10 3 0 8 -4 11
-10z m1330 0 c4 -6 11 -7 17 -4 6 4 8 -1 3 -15 -5 -16 -3 -20 9 -15 21 8 49
-3 41 -16 -5 -8 -11 -7 -20 0 -8 7 -18 9 -23 6 -12 -7 -72 22 -72 35 0 6 5 7
10 4 6 -3 10 -1 10 4 0 14 17 14 25 1z m-359 -15 c13 -13 13 -15 1 -15 -8 0
-20 7 -27 15 -9 11 -10 15 -1 15 7 0 19 -7 27 -15z m-96 -5 c0 -5 22 -25 50
-42 54 -36 58 -51 17 -56 -34 -4 -34 -15 -2 -30 21 -10 25 -9 25 3 0 8 4 15 9
15 5 0 13 11 18 25 7 22 10 23 33 12 14 -7 29 -22 35 -34 12 -27 36 -38 46
-22 11 19 40 20 57 2 13 -12 13 -16 2 -23 -8 -5 -18 -6 -22 -4 -4 3 -8 0 -8
-5 0 -12 23 -15 34 -4 4 4 19 8 34 10 15 1 21 0 15 -3 -7 -3 -13 -13 -13 -22
0 -12 3 -13 12 -4 14 14 32 16 23 3 -3 -5 7 -19 22 -31 16 -12 21 -21 13 -19
-8 2 -32 0 -52 -4 -25 -5 -56 -2 -93 8 -61 18 -98 13 -88 -12 5 -13 1 -14 -27
-8 -17 4 -41 16 -51 26 -10 10 -29 19 -42 19 -31 0 -38 9 -27 30 6 11 5 23 -3
33 -10 13 -26 14 -112 6 -54 -5 -102 -13 -105 -17 -3 -4 -16 -8 -29 -10 -16
-3 -22 0 -18 10 2 7 10 12 17 10 20 -5 60 27 60 47 0 10 7 24 15 31 10 9 15 9
15 1 0 -6 5 -11 11 -11 6 0 9 7 5 15 -4 11 1 14 19 13 14 -1 25 -8 25 -15 0
-6 4 -15 10 -18 6 -4 9 5 8 19 -1 14 -9 28 -18 32 -11 4 -7 9 15 19 36 16 65
18 65 5z m2387 -22 c-3 -8 -6 -5 -6 6 -1 11 2 17 5 13 3 -3 4 -12 1 -19z
m-2237 -24 c0 -12 -4 -12 -20 -2 -13 8 -16 15 -8 19 15 10 28 2 28 -17z m123
-28 c6 -16 -19 -30 -28 -16 -4 6 -1 10 5 10 6 0 8 5 5 10 -3 6 -2 10 3 10 6 0
12 -6 15 -14z m457 -46 c-8 -5 -18 -6 -24 -3 -5 4 -1 10 10 13 24 9 34 2 14
-10z m1550 -90 c0 -5 -4 -10 -10 -10 -5 0 -10 5 -10 10 0 6 5 10 10 10 6 0 10
-4 10 -10z m-1590 -81 c0 -14 -17 -10 -23 5 -4 10 -1 13 9 9 7 -3 14 -9 14
-14z m1357 -37 c13 -15 28 -35 34 -45 9 -16 8 -17 -10 -8 -11 6 -23 16 -26 21
-3 6 -13 10 -22 10 -12 0 -14 -9 -10 -47 6 -45 5 -46 -5 -15 -9 28 -15 32 -44
32 -31 0 -34 -3 -34 -30 0 -17 7 -42 16 -55 17 -27 13 -63 -11 -97 -12 -19
-13 -19 -14 4 0 13 -3 55 -6 93 -4 39 -6 80 -7 93 0 12 -6 22 -14 22 -8 0 -17
7 -20 15 -5 11 -10 13 -19 5 -17 -14 -26 9 -11 28 8 10 32 12 96 7 76 -5 87
-8 107 -33z m-1587 -28 c0 -6 7 -17 15 -24 8 -7 15 -19 15 -27 0 -7 10 -27 21
-42 12 -16 18 -34 15 -40 -4 -6 0 -11 8 -11 10 0 16 -9 16 -25 0 -23 -2 -24
-21 -13 -18 12 -69 98 -69 118 0 5 -13 32 -29 59 -20 33 -26 51 -18 54 13 5
46 -31 47 -49z m355 6 c3 -5 1 -10 -4 -10 -6 0 -11 5 -11 10 0 6 2 10 4 10 3
0 8 -4 11 -10z m-3715 -24 c0 -2 -8 -10 -17 -17 -16 -13 -17 -12 -4 4 13 16
21 21 21 13z m4724 -31 c9 -14 13 -25 9 -25 -5 0 -3 -4 2 -8 11 -8 36 -94 29
-101 -6 -6 -33 32 -28 40 2 4 -3 12 -12 20 -13 10 -16 9 -21 -9 -3 -14 -13
-22 -27 -22 -21 -1 -21 -1 -2 -15 20 -15 20 -15 0 -30 -10 -8 -25 -12 -32 -10
-10 4 -12 -2 -7 -18 5 -17 4 -19 -4 -7 -13 18 -14 53 -2 46 5 -3 11 5 13 19 3
13 1 26 -4 27 -5 2 1 13 12 26 12 12 22 31 23 42 1 11 5 20 9 20 4 0 8 7 8 15
0 23 16 18 34 -10z m-4720 -10 c-4 -8 -11 -15 -16 -15 -6 0 -5 6 2 15 7 8 14
15 16 15 2 0 1 -7 -2 -15z m5128 -37 c-7 -7 -10 -5 -7 8 5 29 6 30 12 16 3 -8
1 -18 -5 -24z m-1369 -21 c8 -3 17 -15 20 -26 5 -19 1 -23 -19 -20 -4 0 -11
-5 -15 -13 -7 -10 -9 -10 -10 2 -2 24 -5 34 -13 53 -5 9 -5 25 -1 35 6 15 8
15 15 -4 5 -12 15 -24 23 -27z m-3761 -25 c-7 -2 -12 -10 -12 -18 0 -8 6 -11
15 -8 9 4 15 0 15 -10 0 -9 -4 -16 -9 -16 -5 0 -17 -8 -27 -17 -16 -17 -17
-16 -10 25 7 45 28 79 35 59 2 -6 -1 -13 -7 -15z m4122 -63 c-9 -30 -19 -58
-24 -64 -4 -5 -10 -30 -13 -55 -11 -89 -167 -353 -197 -335 -11 7 -38 -27 -45
-58 -7 -26 -8 -26 -21 -10 -13 18 -9 58 8 80 7 8 5 18 -6 28 -20 21 -20 34 0
42 8 3 13 12 10 19 -3 8 1 14 9 14 8 0 15 4 15 9 0 5 30 37 66 72 36 35 76 74
87 85 22 22 71 113 103 192 23 57 28 48 8 -19z m-445 26 c7 4 8 -1 4 -12 -3
-10 -3 -15 2 -11 9 9 40 -20 31 -30 -4 -3 -11 0 -15 7 -5 7 -13 11 -19 7 -6
-3 -12 0 -15 6 -3 10 -9 10 -23 2 -11 -6 -32 -10 -47 -8 -15 1 -27 -1 -27 -6
0 -18 -71 -32 -92 -19 -10 6 -10 11 -2 19 9 9 14 9 18 1 9 -14 27 -15 24 -1
-2 5 24 23 57 38 53 26 62 28 77 15 9 -8 21 -12 27 -8z m-4024 5 c3 -5 1 -10
-4 -10 -6 0 -11 5 -11 10 0 6 2 10 4 10 3 0 8 -4 11 -10z m5400 0 c3 -5 1 -10
-4 -10 -6 0 -11 5 -11 10 0 6 2 10 4 10 3 0 8 -4 11 -10z m-1230 -10 c3 -5 -1
-10 -9 -10 -9 0 -16 5 -16 10 0 6 4 10 9 10 6 0 13 -4 16 -10z m882 -22 c-3
-7 -5 -2 -5 12 0 14 2 19 5 13 2 -7 2 -19 0 -25z m-939 -39 c-2 -6 -10 -5 -21
3 -12 9 -16 20 -11 31 6 17 8 16 21 -3 8 -11 13 -25 11 -31z m67 32 c3 -5 1
-12 -5 -16 -5 -3 -10 1 -10 9 0 18 6 21 15 7z m-1285 -11 c0 -5 -4 -10 -10
-10 -5 0 -10 5 -10 10 0 6 5 10 10 10 6 0 10 -4 10 -10z m-2606 -21 c-6 -11
-24 -2 -24 11 0 5 7 7 15 4 8 -4 12 -10 9 -15z m4773 -1 c-3 -8 -6 -5 -6 6 -1
11 2 17 5 13 3 -3 4 -12 1 -19z m297 -5 c-4 -16 -12 -35 -19 -43 -7 -8 -15
-42 -17 -75 -3 -45 -10 -67 -25 -82 -12 -12 -24 -18 -28 -15 -4 4 -5 1 -3 -6
4 -17 -28 -40 -39 -29 -4 5 -1 12 7 17 12 8 10 10 -7 10 -25 0 -26 -1 -17 -24
3 -9 12 -16 20 -16 8 0 14 -5 14 -10 0 -12 -65 -5 -125 13 -40 12 -40 12 -11
17 16 3 34 13 40 24 6 10 35 41 64 69 30 29 56 63 59 79 3 15 9 26 13 23 4 -3
11 2 14 11 3 8 11 12 17 8 7 -4 9 -3 6 3 -7 11 19 53 34 53 5 0 7 -12 3 -27z
m-1184 -29 c0 -8 -4 -12 -10 -9 -5 3 -10 13 -10 21 0 8 5 12 10 9 6 -3 10 -13
10 -21z m827 4 c-3 -8 -6 -5 -6 6 -1 11 2 17 5 13 3 -3 4 -12 1 -19z m184 -1
c-10 -9 -11 -8 -5 6 3 10 9 15 12 12 3 -3 0 -11 -7 -18z m-1044 -2 c0 -8 -4
-12 -9 -9 -4 3 -8 9 -8 15 0 5 4 9 8 9 5 0 9 -7 9 -15z m-1227 -30 c0 -5 -5
-3 -10 5 -5 8 -10 20 -10 25 0 6 5 3 10 -5 5 -8 10 -19 10 -25z m1240 -29 c0
-3 -4 -8 -10 -11 -5 -3 -10 -1 -10 4 0 6 5 11 10 11 6 0 10 -2 10 -4z m-810
-26 c8 -5 11 -10 7 -10 -4 0 -3 -10 4 -21 8 -15 8 -19 0 -15 -6 4 -11 2 -11
-3 0 -6 6 -11 14 -11 14 0 15 -35 2 -48 -8 -8 -29 51 -27 77 0 14 -5 28 -11
33 -7 4 -8 8 -3 8 6 0 17 -5 25 -10z m1637 -15 c17 -9 35 -20 39 -26 4 -8 0
-8 -14 0 -11 6 -31 11 -44 11 -22 1 -58 21 -58 33 0 9 40 -1 77 -18z m-767 -9
c0 -3 -4 -8 -10 -11 -5 -3 -10 -1 -10 4 0 6 5 11 10 11 6 0 10 -2 10 -4z m-66
-28 c3 -13 0 -27 -7 -33 -6 -5 -12 -19 -12 -29 0 -27 -41 -32 -55 -7 -15 29
-12 61 6 61 8 0 12 -5 9 -11 -4 -6 2 -5 14 3 12 7 21 18 21 25 0 22 17 14 24
-9z m756 -38 c24 -15 7 -19 -25 -5 -23 10 -25 14 -10 14 11 0 27 -3 35 -9z
m-1565 -59 c3 -5 2 -12 -3 -15 -5 -3 -9 1 -9 9 0 17 3 19 12 6z m1930 -1 c3
-5 1 -10 -4 -10 -6 0 -11 5 -11 10 0 6 2 10 4 10 3 0 8 -4 11 -10z m-130 -20
c17 -8 15 -9 -10 -8 -16 0 -43 -6 -60 -15 -19 -11 -33 -13 -39 -7 -6 6 -14 5
-23 -1 -9 -8 -13 -8 -13 0 0 28 102 50 145 31z m93 -48 c3 -10 -5 -12 -34 -7
-37 7 -38 6 -19 -9 11 -8 16 -15 10 -16 -15 0 -66 36 -60 42 12 11 98 3 103
-10z m-4719 -13 c11 -12 25 -35 31 -53 6 -17 16 -38 21 -46 5 -8 23 -42 40
-76 26 -50 31 -68 25 -97 -4 -23 -13 -37 -21 -37 -8 0 -15 -4 -15 -10 0 -15
-20 -12 -20 3 -1 18 -36 57 -52 57 -10 0 -10 2 1 9 12 8 10 12 -11 22 -15 6
-29 19 -32 28 -3 9 -10 23 -15 31 -30 50 -40 150 -18 178 14 18 44 15 66 -9z
m3542 -12 c-6 -8 -8 -17 -4 -20 3 -4 -1 -7 -9 -7 -14 0 -16 12 -9 38 1 1 8 2
17 2 13 0 14 -3 5 -13z m919 -18 c0 -11 -27 -12 -34 0 -3 4 -3 11 0 14 8 8 34
-3 34 -14z m160 -30 c0 -6 -4 -7 -10 -4 -5 3 -10 11 -10 16 0 6 5 7 10 4 6 -3
10 -11 10 -16z m-139 -9 c5 0 9 -5 9 -11 0 -6 -9 -8 -20 -4 -11 4 -20 2 -20
-4 0 -6 9 -11 20 -11 22 0 28 -34 9 -46 -6 -3 -9 -14 -6 -24 2 -10 1 -24 -4
-31 -13 -22 -22 36 -9 61 15 28 4 39 -17 17 -15 -14 -16 -24 -6 -69 6 -30 7
-54 2 -56 -5 -2 -9 -10 -9 -18 0 -8 -16 -22 -36 -31 -34 -17 -36 -17 -50 2
-12 17 -14 17 -14 2 0 -10 -6 -26 -12 -37 -10 -16 -10 -24 0 -40 19 -30 14
-36 -10 -13 -36 32 -65 45 -65 28 0 -8 4 -12 8 -9 4 2 15 -6 23 -18 15 -21 15
-23 -1 -29 -29 -10 -91 -3 -117 14 -29 19 -31 57 -4 57 10 0 18 7 18 15 0 8 7
15 15 15 8 0 15 9 15 20 0 11 7 20 15 20 8 0 15 6 15 13 0 8 3 7 9 -3 6 -8 8
-17 5 -21 -2 -4 5 -5 16 -2 16 4 18 8 9 19 -11 13 -6 18 14 15 4 -1 5 10 1 24
-4 15 -2 25 5 25 6 0 10 6 9 13 -2 6 5 12 14 12 24 0 35 14 51 59 12 35 14 37
29 22 17 -16 39 -22 36 -8 -3 17 16 43 29 38 8 -3 19 -6 24 -6z m-738 -25 c-3
-9 -8 -14 -10 -11 -3 3 -2 9 2 15 9 16 15 13 8 -4z m890 1 c4 -10 1 -13 -9 -9
-7 3 -14 0 -14 -7 0 -6 -4 -8 -10 -5 -6 4 -5 11 3 20 16 18 24 18 30 1z m-37
-37 c3 -5 -6 -8 -20 -7 -15 1 -26 8 -26 14 0 13 37 7 46 -7z m-1613 -66 c-7
-3 -13 -11 -13 -19 0 -14 11 -18 43 -15 22 3 22 -15 1 -23 -15 -6 -47 13 -66
39 -12 17 -9 20 20 21 15 1 21 -1 15 -3z m107 -7 c0 -23 -16 -27 -17 -5 -1 10
2 19 8 19 5 0 9 -6 9 -14z m-10 -44 c0 -4 -5 -13 -12 -20 -8 -8 -9 -12 -1 -12
6 0 10 -8 8 -17 -2 -10 -4 -27 -5 -38 -1 -11 -6 -2 -10 19 -8 42 -3 76 11 76
5 0 9 -4 9 -8z m410 -2 c0 -5 -7 -10 -15 -10 -8 0 -15 5 -15 10 0 6 7 10 15
10 8 0 15 -4 15 -10z m-10 -59 c0 -5 -7 -14 -15 -21 -16 -14 -18 -10 -9 14 6
17 24 22 24 7z m-85 -71 c-3 -5 -12 -10 -18 -10 -7 0 -6 4 3 10 19 12 23 12
15 0z m1645 -10 c0 -12 -28 -25 -36 -17 -9 9 6 27 22 27 8 0 14 -5 14 -10z
m-1665 -40 c-3 -5 -11 -10 -16 -10 -6 0 -7 5 -4 10 3 6 11 10 16 10 6 0 7 -4
4 -10z m850 -30 c3 -5 1 -10 -4 -10 -6 0 -11 5 -11 10 0 6 2 10 4 10 3 0 8 -4
11 -10z m-11 -35 c11 -8 15 -15 10 -15 -6 0 -19 7 -30 15 -10 8 -14 14 -9 14
6 0 19 -6 29 -14z m-301 -149 c-6 -28 -33 -44 -33 -20 0 8 -4 12 -10 9 -17
-11 -11 7 8 21 27 21 40 17 35 -10z m-238 -96 c-3 -5 -12 -10 -18 -10 -7 0 -6
4 3 10 19 12 23 12 15 0z m-262 -336 c-3 -8 -11 -13 -18 -10 -8 3 -11 -2 -8
-13 5 -18 -21 -36 -37 -26 -5 3 -11 1 -15 -5 -10 -16 -55 -12 -55 6 0 8 5 12
11 9 12 -8 79 22 79 35 0 5 10 11 23 13 12 2 23 5 24 6 1 0 0 -6 -4 -15z"/>
<path d="M5771 3142 c1 -29 6 -52 10 -52 16 0 14 78 -2 94 -5 6 -8 -11 -8 -42z"/>
<path d="M4141 2567 c-11 -29 -3 -69 13 -64 13 4 18 75 5 83 -5 3 -13 -6 -18
-19z"/>
<path d="M4310 2406 c0 -2 7 -9 15 -16 12 -10 15 -10 15 4 0 9 -7 16 -15 16
-8 0 -15 -2 -15 -4z"/>
<path d="M6038 2283 c7 -3 16 -2 19 1 4 3 -2 6 -13 5 -11 0 -14 -3 -6 -6z"/>
<path d="M4890 2050 c-13 -8 -12 -10 3 -10 9 0 17 5 17 10 0 12 -1 12 -20 0z"/>
<path d="M6000 4063 c48 -38 129 -112 158 -145 17 -20 32 -27 55 -26 18 1 42
-4 53 -10 11 -6 26 -7 33 -3 15 10 61 2 61 -10 0 -5 -5 -9 -11 -9 -5 0 -7 -4
-4 -10 11 -17 22 -11 27 14 3 14 0 30 -5 35 -8 8 -2 11 20 11 30 0 63 -21 63
-41 0 -18 28 -9 33 11 6 22 10 22 150 5 28 -4 37 -2 37 10 0 10 -10 15 -34 15
-52 0 -300 41 -310 51 -6 6 -5 9 2 9 17 0 15 28 -2 46 -8 8 -26 14 -40 14 -22
0 -37 5 -75 27 -2 2 2 9 9 18 11 13 -3 15 -121 15 l-134 0 35 -27z m345 -153
c4 -6 -9 -10 -32 -9 -34 1 -35 2 -13 9 35 11 38 11 45 0z"/>
<path d="M6246 4083 c-3 -3 -3 -10 0 -14 7 -12 44 -12 44 0 0 10 -36 21 -44
14z"/>
<path d="M5080 4060 c0 -5 4 -10 9 -10 6 0 13 5 16 10 3 6 -1 10 -9 10 -9 0
-16 -4 -16 -10z"/>
<path d="M5750 3990 c0 -5 5 -10 11 -10 5 0 7 5 4 10 -3 6 -8 10 -11 10 -2 0
-4 -4 -4 -10z"/>
<path d="M3550 3980 c0 -5 5 -10 10 -10 6 0 10 5 10 10 0 6 -4 10 -10 10 -5 0
-10 -4 -10 -10z"/>
<path d="M5685 3980 c-3 -5 -2 -10 4 -10 5 0 13 5 16 10 3 6 2 10 -4 10 -5 0
-13 -4 -16 -10z"/>
<path d="M3790 3920 c0 -5 5 -10 10 -10 6 0 10 5 10 10 0 6 -4 10 -10 10 -5 0
-10 -4 -10 -10z"/>
<path d="M5680 3870 c0 -5 5 -10 11 -10 5 0 7 5 4 10 -3 6 -8 10 -11 10 -2 0
-4 -4 -4 -10z"/>
<path d="M3145 3850 c3 -5 8 -10 11 -10 2 0 4 5 4 10 0 6 -5 10 -11 10 -5 0
-7 -4 -4 -10z"/>
<path d="M3760 3846 c0 -9 40 -13 46 -5 3 5 -6 9 -20 9 -14 0 -26 -2 -26 -4z"/>
<path d="M6201 3834 c0 -11 3 -14 6 -6 3 7 2 16 -1 19 -3 4 -6 -2 -5 -13z"/>
<path d="M3820 3830 c0 -5 -6 -10 -14 -10 -8 0 -17 -8 -19 -17 -3 -13 -5 -12
-6 5 -1 14 -5 20 -12 17 -6 -4 -8 -13 -5 -21 3 -8 1 -14 -4 -14 -6 0 -10 7
-10 15 0 8 -7 15 -16 15 -8 0 -13 -3 -11 -7 3 -5 -15 -8 -39 -9 -24 0 -50 -6
-58 -13 -8 -7 -21 -9 -27 -5 -8 4 -9 3 -5 -4 4 -7 1 -12 -9 -12 -13 0 -14 -4
-5 -20 12 -23 7 -25 -21 -9 -11 5 -17 15 -13 20 4 8 1 8 -13 1 -12 -7 -25 -7
-34 -1 -20 12 -37 11 -19 -2 12 -9 12 -10 -3 -5 -10 3 -21 6 -23 6 -2 0 -4 7
-4 15 0 21 -37 19 -49 -2 -6 -12 -22 -18 -50 -18 -23 0 -41 3 -41 7 0 5 -6 8
-14 8 -9 0 -13 -7 -11 -20 3 -17 1 -19 -16 -10 -13 7 -19 7 -19 0 0 -5 -7 -10
-16 -10 -8 0 -13 4 -10 9 14 22 -21 16 -43 -7 -19 -21 -26 -23 -42 -14 -15 9
-17 9 -13 -2 3 -8 0 -17 -7 -22 -7 -4 -10 -3 -6 3 8 12 -17 25 -28 15 -4 -4
-10 -7 -13 -8 -43 -4 -122 -28 -122 -37 0 -7 -12 -13 -27 -14 l-27 -1 27 16
c32 20 35 32 7 32 -11 0 -20 3 -20 8 0 4 -38 8 -83 10 -72 2 -86 -1 -101 -17
-10 -11 -24 -17 -32 -14 -8 3 -14 0 -14 -5 0 -19 -32 -43 -50 -37 -10 3 -21 1
-25 -5 -3 -5 -1 -10 4 -10 6 0 11 -4 11 -10 0 -5 -7 -10 -16 -10 -9 0 -12 -5
-8 -12 5 -7 0 -9 -14 -6 -24 7 -36 -14 -19 -31 8 -8 4 -11 -15 -11 -31 0 -47
-17 -24 -26 26 -10 18 -22 -10 -16 -17 3 -25 1 -21 -6 4 -5 0 -12 -8 -16 -33
-12 -12 -26 43 -27 41 0 51 -3 37 -9 -33 -14 -87 -11 -106 6 -27 24 -47 12
-41 -25 2 -17 9 -32 16 -32 6 -1 50 -3 98 -5 65 -2 89 1 98 11 14 16 5 35 -16
35 -8 0 -14 5 -14 11 0 5 4 8 9 5 17 -11 61 12 55 28 -4 10 3 20 20 27 15 7
29 23 32 36 5 20 23 29 38 21 3 -2 15 7 28 18 38 35 93 59 69 31 -13 -16 -5
-28 15 -20 8 3 14 0 14 -6 0 -7 -6 -13 -12 -15 -127 -37 -140 -46 -86 -63 18
-6 25 -11 16 -12 -10 -1 -18 -4 -18 -7 0 -4 8 -13 18 -21 9 -8 11 -11 3 -7 -9
4 -12 3 -8 -3 4 -6 -4 -14 -18 -17 -24 -6 -36 -36 -15 -36 6 0 10 6 10 14 0
18 36 26 129 28 l75 1 38 -43 c32 -35 38 -49 34 -77 -3 -32 -1 -34 20 -30 21
4 22 3 7 -19 -8 -13 -13 -31 -9 -39 7 -18 37 -20 54 -3 9 9 12 9 12 0 0 -7 -8
-16 -17 -19 -24 -9 -33 -23 -33 -53 0 -29 33 -84 44 -73 4 4 5 1 1 -7 -6 -18
50 -90 71 -90 8 0 23 -6 34 -12 16 -11 22 -9 34 7 9 11 16 29 16 39 0 11 3 16
7 12 4 -4 12 10 18 31 9 32 17 39 58 54 26 10 55 26 65 37 25 28 163 59 147
32 -3 -5 -1 -10 5 -10 6 0 9 8 6 18 -4 12 3 26 19 40 16 14 25 32 25 50 0 48
3 62 16 62 8 0 11 6 8 15 -4 9 0 15 9 15 15 0 19 51 4 66 -12 13 -8 24 8 18
17 -7 22 31 6 41 -6 3 -9 14 -8 24 1 15 5 17 18 10 13 -6 18 -4 22 12 4 16 2
19 -16 14 -15 -4 -12 0 10 15 18 12 31 26 28 30 -3 4 9 13 25 19 50 17 34 51
-23 51 -12 0 -40 -7 -62 -14 -41 -15 -64 -4 -45 20 6 6 7 14 3 17 -3 4 -2 7 4
7 6 0 14 -10 18 -22 7 -22 7 -22 12 -3 11 46 62 52 95 11 15 -18 19 -19 28 -6
13 19 13 30 0 30 -5 0 -10 7 -10 15 0 8 9 15 19 15 11 0 22 4 25 9 3 4 18 6
33 4 40 -7 100 -36 85 -41 -7 -2 -19 2 -28 8 -8 7 -18 9 -22 5 -4 -4 -1 -10 6
-12 6 -3 12 -11 12 -19 0 -17 5 -17 49 -4 25 7 40 6 60 -5 19 -10 21 -14 9
-15 -30 0 -20 -27 16 -44 19 -9 37 -22 39 -29 4 -9 6 -9 6 0 1 6 -3 15 -9 18
-20 12 -9 22 21 19 38 -5 51 -12 43 -25 -3 -6 3 -17 14 -25 12 -8 19 -21 16
-29 -4 -8 -1 -15 5 -15 6 0 11 -7 11 -15 0 -17 44 -61 83 -81 24 -13 27 -13
27 1 0 13 2 14 14 3 8 -7 11 -17 8 -23 -3 -5 6 0 19 12 24 22 26 22 43 5 15
-15 16 -15 11 0 -4 11 1 20 15 28 11 6 18 15 15 20 -3 5 6 12 20 16 13 3 22
10 19 15 -10 17 7 31 22 18 17 -14 32 -3 17 12 -8 8 -7 18 3 37 14 27 9 47 -5
23 -5 -8 -14 -10 -22 -6 -9 6 -11 3 -6 -9 6 -14 3 -16 -16 -10 -12 4 -26 12
-30 18 -6 8 -10 7 -14 -2 -2 -6 -9 -10 -14 -6 -15 9 -10 24 7 24 10 0 14 6 10
15 -3 9 0 15 9 15 17 0 20 16 5 25 -5 3 -10 2 -10 -3 0 -5 -7 -9 -15 -9 -8 0
-13 2 -11 5 3 2 0 10 -7 16 -9 10 -16 10 -35 0 -20 -10 -31 -9 -68 6 -41 18
-48 17 -45 -2 2 -15 -27 -8 -33 7 -3 8 -13 15 -21 15 -9 0 -13 5 -10 10 3 6 1
10 -4 10 -6 0 -11 4 -11 9 0 5 8 8 18 6 9 -1 11 0 5 2 -7 3 -13 10 -13 16 0 6
-7 4 -17 -5 -14 -15 -15 -21 -4 -44 8 -19 9 -30 1 -38 -7 -7 -10 -5 -10 6 0 9
-11 19 -24 22 -19 5 -23 11 -18 28 3 13 1 19 -6 15 -5 -4 -12 -3 -14 3 -1 5
-25 12 -52 14 -27 3 -53 9 -58 14 -6 6 -34 8 -63 5 -47 -5 -53 -3 -58 16 -5
21 -27 30 -27 11z m0 -40 c0 -5 -4 -10 -10 -10 -5 0 -10 5 -10 10 0 6 5 10 10
10 6 0 10 -4 10 -10z m-75 -30 c3 -5 1 -10 -4 -10 -6 0 -11 5 -11 10 0 6 2 10
4 10 3 0 8 -4 11 -10z m278 -16 c13 -9 15 -14 6 -19 -7 -5 -16 -1 -21 9 -5 9
-13 14 -18 11 -4 -3 -10 2 -13 10 -7 16 14 11 46 -11z m-373 -8 c0 -2 -11 -6
-25 -8 -14 -3 -25 -1 -25 3 0 5 11 9 25 9 14 0 25 -2 25 -4z m-450 -10 c0 -3
-4 -8 -10 -11 -5 -3 -10 -1 -10 4 0 6 5 11 10 11 6 0 10 -2 10 -4z m1115 -86
c3 -5 1 -10 -4 -10 -6 0 -11 5 -11 10 0 6 2 10 4 10 3 0 8 -4 11 -10z m89
-102 c-3 -5 -12 -4 -20 3 -19 16 -18 18 6 12 11 -3 17 -9 14 -15z m-54 -17 c0
-5 -7 -11 -15 -15 -15 -5 -20 5 -8 17 9 10 23 9 23 -2z m-1223 -248 c-8 -7
-37 9 -31 19 3 5 12 4 20 -3 8 -6 13 -14 11 -16z m458 7 c3 -5 1 -10 -4 -10
-6 0 -11 5 -11 10 0 6 2 10 4 10 3 0 8 -4 11 -10z"/>
<path d="M6515 3800 c3 -5 11 -10 16 -10 6 0 7 5 4 10 -3 6 -11 10 -16 10 -6
0 -7 -4 -4 -10z"/>
<path d="M3140 3790 c0 -5 5 -10 10 -10 6 0 10 5 10 10 0 6 -4 10 -10 10 -5 0
-10 -4 -10 -10z"/>
<path d="M2995 3780 c4 -6 11 -8 16 -5 14 9 11 15 -7 15 -8 0 -12 -5 -9 -10z"/>
<path d="M3310 3780 c0 -5 7 -10 16 -10 8 0 12 5 9 10 -3 6 -10 10 -16 10 -5
0 -9 -4 -9 -10z"/>
<path d="M3360 3775 c0 -8 2 -15 4 -15 2 0 6 7 10 15 3 8 1 15 -4 15 -6 0 -10
-7 -10 -15z"/>
<path d="M4110 3780 c0 -5 5 -10 10 -10 6 0 10 5 10 10 0 6 -4 10 -10 10 -5 0
-10 -4 -10 -10z"/>
<path d="M6208 3773 c6 -2 18 -2 25 0 6 3 1 5 -13 5 -14 0 -19 -2 -12 -5z"/>
<path d="M3825 3750 c-3 -5 -1 -10 4 -10 6 0 11 5 11 10 0 6 -2 10 -4 10 -3 0
-8 -4 -11 -10z"/>
<path d="M6397 3753 c-4 -5 -1 -10 6 -11 86 -7 127 -17 127 -28 0 -21 35 -17
56 7 l19 21 -32 -6 c-18 -4 -38 -4 -45 1 -7 4 -22 9 -33 10 -11 2 -36 5 -56 9
-20 3 -39 2 -42 -3z"/>
<path d="M3688 3703 c7 -3 16 -2 19 1 4 3 -2 6 -13 5 -11 0 -14 -3 -6 -6z"/>
<path d="M3948 3688 c9 -9 15 -9 24 0 9 9 7 12 -12 12 -19 0 -21 -3 -12 -12z"/>
<path d="M6390 3696 c0 -2 11 -6 25 -8 14 -3 25 -1 25 3 0 5 -11 9 -25 9 -14
0 -25 -2 -25 -4z"/>
<path d="M6596 3691 c-3 -5 1 -11 9 -15 8 -3 15 -1 15 4 0 13 -18 22 -24 11z"/>
<path d="M3810 3676 c0 -16 21 -26 56 -26 17 0 24 6 24 20 0 11 -7 20 -15 20
-8 0 -15 -4 -15 -10 0 -5 -7 -10 -15 -10 -8 0 -15 5 -15 10 0 6 -4 10 -10 10
-5 0 -10 -6 -10 -14z"/>
<path d="M6216 3674 c-13 -33 -4 -74 49 -233 30 -91 55 -172 55 -181 0 -11 20
-25 58 -40 55 -22 123 -65 130 -82 2 -5 25 -34 51 -66 54 -64 75 -102 86 -149
18 -86 25 -29 25 211 0 221 -2 256 -15 256 -9 0 -15 9 -15 21 0 17 -3 19 -14
10 -10 -9 -15 -8 -20 4 -3 8 -14 15 -25 15 -11 0 -26 6 -33 14 -22 22 -95 56
-120 56 -13 0 -32 7 -42 15 -11 8 -27 15 -35 14 -11 0 -12 -2 -3 -6 20 -8 14
-23 -10 -23 -34 1 -72 36 -62 57 17 38 12 55 -18 65 -20 7 -26 13 -18 18 14 9
7 40 -9 40 -5 0 -12 -7 -15 -16z m404 -334 c0 -5 -4 -10 -9 -10 -6 0 -13 5
-16 10 -3 6 1 10 9 10 9 0 16 -4 16 -10z m-165 -80 c3 -5 -1 -10 -9 -10 -9 0
-16 5 -16 10 0 6 4 10 9 10 6 0 13 -4 16 -10z m170 -20 c3 -5 1 -10 -4 -10 -6
0 -11 5 -11 10 0 6 2 10 4 10 3 0 8 -4 11 -10z m29 -101 c-6 -11 -24 -2 -24
11 0 5 7 7 15 4 8 -4 12 -10 9 -15z"/>
<path d="M4500 3670 c0 -5 5 -10 10 -10 6 0 10 5 10 10 0 6 -4 10 -10 10 -5 0
-10 -4 -10 -10z"/>
<path d="M6648 3673 c7 -3 16 -2 19 1 4 3 -2 6 -13 5 -11 0 -14 -3 -6 -6z"/>
<path d="M3992 3627 c1 -16 9 -23 23 -24 11 -1 14 1 8 4 -7 3 -13 13 -13 24 0
10 -4 19 -10 19 -5 0 -9 -10 -8 -23z"/>
<path d="M6606 3636 c7 -17 64 -23 64 -6 0 6 -9 10 -19 10 -11 0 -27 3 -35 6
-12 5 -15 2 -10 -10z"/>
<path d="M1360 3620 c0 -5 5 -10 11 -10 5 0 7 5 4 10 -3 6 -8 10 -11 10 -2 0
-4 -4 -4 -10z"/>
<path d="M4953 3623 c9 -2 25 -2 35 0 9 3 1 5 -18 5 -19 0 -27 -2 -17 -5z"/>
<path d="M5020 3620 c-13 -8 -13 -10 2 -10 9 0 20 5 23 10 8 13 -5 13 -25 0z"/>
<path d="M6550 3615 c0 -8 4 -15 10 -15 5 0 7 7 4 15 -4 8 -8 15 -10 15 -2 0
-4 -7 -4 -15z"/>
<path d="M3880 3600 c-7 -14 -7 -20 0 -20 5 0 10 7 10 15 0 17 16 20 25 5 3
-5 14 -10 23 -10 11 0 6 6 -12 15 -35 19 -33 19 -46 -5z"/>
<path d="M1320 3586 c0 -9 5 -16 10 -16 6 0 10 4 10 9 0 6 -4 13 -10 16 -5 3
-10 -1 -10 -9z"/>
<path d="M4510 3586 c0 -9 7 -16 16 -16 9 0 14 5 12 12 -6 18 -28 21 -28 4z"/>
<path d="M3936 3571 c-3 -5 0 -14 7 -19 10 -8 13 -6 14 9 2 19 -11 26 -21 10z"/>
<path d="M2190 3560 c0 -5 8 -10 18 -10 14 0 15 -2 2 -10 -11 -8 -7 -10 18 -8
35 2 39 7 20 26 -15 15 -58 16 -58 2z"/>
<path d="M4650 3561 c0 -6 5 -13 10 -16 6 -3 10 1 10 9 0 9 -4 16 -10 16 -5 0
-10 -4 -10 -9z"/>
<path d="M4105 3550 c4 -6 11 -8 16 -5 14 9 11 15 -7 15 -8 0 -12 -5 -9 -10z"/>
<path d="M6450 3545 c0 -9 6 -12 15 -9 8 4 15 10 15 15 0 5 -7 9 -15 9 -8 0
-15 -7 -15 -15z"/>
<path d="M4517 3543 c-4 -3 1 -12 11 -19 16 -12 15 -13 -5 -14 -14 0 -23 -6
-23 -15 0 -12 4 -13 19 -5 11 5 28 10 39 10 11 0 22 9 25 20 4 17 1 19 -19 16
-13 -3 -24 0 -24 5 0 10 -14 12 -23 2z"/>
<path d="M4480 3526 c0 -8 -8 -17 -17 -19 -14 -4 -12 -5 5 -6 16 -1 22 5 22
19 0 11 -2 20 -5 20 -3 0 -5 -6 -5 -14z"/>
<path d="M3766 3504 c-5 -14 -4 -15 9 -4 17 14 19 20 6 20 -5 0 -12 -7 -15
-16z"/>
<path d="M4935 3510 c3 -5 8 -10 11 -10 2 0 4 5 4 10 0 6 -5 10 -11 10 -5 0
-7 -4 -4 -10z"/>
<path d="M4070 3485 c0 -8 5 -15 10 -15 6 0 10 7 10 15 0 8 -4 15 -10 15 -5 0
-10 -7 -10 -15z"/>
<path d="M4710 3483 c13 -6 13 -33 0 -33 -5 0 -10 -4 -10 -10 0 -5 7 -10 16
-10 19 0 16 52 -4 56 -7 1 -8 0 -2 -3z"/>
<path d="M5978 3485 c-4 -4 -4 -13 -2 -19 3 -7 -2 -19 -11 -26 -13 -11 -19
-10 -34 4 -26 23 -34 7 -11 -22 22 -27 44 -21 60 18 12 29 11 57 -2 45z"/>
<path d="M6560 3468 c0 -17 2 -18 15 -8 8 7 15 14 15 15 0 2 -7 5 -15 9 -10 4
-15 -1 -15 -16z"/>
<path d="M5133 3469 c-13 -5 -23 -12 -23 -17 0 -11 48 -3 55 9 9 13 -8 17 -32
8z"/>
<path d="M3835 3460 c-3 -5 1 -10 9 -10 9 0 16 5 16 10 0 6 -4 10 -9 10 -6 0
-13 -4 -16 -10z"/>
<path d="M4430 3455 c0 -8 5 -15 11 -15 8 0 8 -5 -1 -15 -10 -13 -9 -15 8 -15
12 0 25 -8 31 -17 5 -10 13 -14 18 -9 4 5 2 11 -4 13 -18 7 -16 30 4 37 13 5
14 9 4 19 -9 9 -14 9 -22 -3 -8 -13 -11 -13 -23 3 -16 21 -26 22 -26 2z"/>
<path d="M4068 3449 c-10 -5 -18 -15 -18 -21 0 -7 5 -6 15 2 11 9 15 9 15 1 0
-7 5 -9 10 -6 12 7 14 35 3 35 -5 0 -16 -5 -25 -11z"/>
<path d="M4356 3451 c-4 -7 -5 -15 -2 -18 9 -9 19 4 14 18 -4 11 -6 11 -12 0z"/>
<path d="M4760 3440 c6 -11 15 -20 20 -20 6 0 5 9 -2 20 -7 11 -16 20 -21 20
-4 0 -3 -9 3 -20z"/>
<path d="M2816 3431 c-19 -7 -19 -8 1 -13 14 -4 24 0 27 8 6 15 1 16 -28 5z"/>
<path d="M2950 3430 c0 -5 5 -10 10 -10 6 0 10 5 10 10 0 6 -4 10 -10 10 -5 0
-10 -4 -10 -10z"/>
<path d="M4295 3430 c-3 -5 -1 -10 4 -10 6 0 11 5 11 10 0 6 -2 10 -4 10 -3 0
-8 -4 -11 -10z"/>
<path d="M2366 3421 c-3 -5 1 -11 9 -15 8 -3 15 -1 15 4 0 13 -18 22 -24 11z"/>
<path d="M4800 3420 c0 -5 9 -10 20 -10 11 0 20 5 20 10 0 6 -9 10 -20 10 -11
0 -20 -4 -20 -10z"/>
<path d="M2880 3406 c0 -9 5 -16 10 -16 6 0 10 4 10 9 0 6 -4 13 -10 16 -5 3
-10 -1 -10 -9z"/>
<path d="M2675 3400 c3 -5 10 -10 16 -10 5 0 9 5 9 10 0 6 -7 10 -16 10 -8 0
-12 -4 -9 -10z"/>
<path d="M4106 3385 c4 -8 13 -15 21 -15 13 0 13 3 3 15 -7 8 -16 15 -21 15
-5 0 -6 -7 -3 -15z"/>
<path d="M2367 3370 c-8 -12 -13 -29 -10 -40 3 -10 0 -21 -6 -24 -6 -4 -11
-18 -11 -32 0 -17 -6 -24 -19 -24 -22 0 -37 -30 -20 -40 19 -12 -57 -21 -85
-10 -33 12 -71 -4 -62 -26 4 -11 -1 -13 -25 -9 -21 4 -29 2 -28 -7 3 -17 -11
-49 -28 -66 -7 -7 -13 -22 -13 -33 0 -13 -5 -18 -12 -14 -7 4 -3 -2 10 -12
l23 -19 -23 -11 c-13 -7 -31 -13 -41 -15 -10 -2 -26 -16 -35 -33 -9 -16 -21
-33 -27 -37 -5 -4 -6 -10 -2 -14 4 -4 0 -15 -9 -25 -9 -10 -14 -27 -12 -37 4
-15 1 -18 -14 -14 -13 3 -19 0 -17 -9 1 -8 -3 -27 -10 -44 -9 -22 -9 -36 -1
-53 8 -19 8 -23 -3 -19 -10 4 -13 -15 -15 -85 -3 -84 -1 -91 30 -143 18 -30
44 -59 58 -65 14 -6 33 -28 44 -50 10 -21 25 -41 33 -44 8 -3 12 -10 9 -15 -3
-5 12 -28 35 -52 l40 -44 -26 50 c-14 27 -35 59 -45 70 -24 25 -25 35 -6 35 8
0 18 -9 21 -20 4 -11 26 -40 51 -65 41 -43 63 -58 49 -35 -4 6 -3 16 2 23 5 7
10 23 11 37 1 14 6 26 12 28 5 2 7 8 4 14 -4 6 0 14 7 19 11 7 11 9 1 9 -7 0
-10 5 -7 10 4 7 12 7 25 0 15 -8 20 -6 25 10 4 11 15 20 26 20 11 0 18 4 15 9
-3 5 12 24 34 43 22 20 37 38 33 42 -3 3 0 6 7 6 10 0 9 4 -3 13 -16 11 -16
14 5 44 27 38 38 41 38 13 0 -11 -9 -24 -20 -28 -20 -7 -20 -7 0 -20 12 -7 20
-8 21 -2 1 5 2 15 3 20 1 14 28 30 38 24 4 -3 8 0 8 5 0 6 9 11 20 11 11 0 21
6 21 13 1 6 2 19 3 27 0 8 15 18 31 21 29 7 30 7 3 8 -14 0 -34 4 -44 8 -14 5
-16 1 -12 -25 5 -38 -9 -43 -18 -7 -3 14 -14 25 -23 25 -12 0 -10 5 9 20 41
33 58 34 95 6 l34 -26 28 34 c19 24 30 31 35 23 5 -7 7 -1 6 16 -1 15 -8 27
-14 27 -14 0 -46 63 -42 82 3 15 -25 13 -59 -4 -27 -13 -35 -7 -35 24 0 26
-39 51 -64 41 -8 -3 -14 1 -14 10 0 9 -7 23 -16 32 -10 10 -14 24 -10 39 7 29
70 96 90 96 8 0 22 10 30 22 18 25 22 17 6 -12 -8 -15 -5 -19 17 -25 15 -3 29
-2 33 5 5 7 15 8 33 1 52 -20 22 20 -37 49 l-30 15 29 3 c36 5 58 31 42 50 -8
10 -7 16 3 22 12 7 11 11 -1 26 -13 16 -12 17 4 11 10 -4 23 -7 28 -7 6 0 7
-4 4 -10 -3 -5 1 -10 9 -10 9 0 16 8 17 18 0 14 2 14 9 -3 4 -11 6 -30 3 -42
-4 -17 -1 -23 11 -23 22 0 33 30 15 41 -8 5 -9 9 -4 9 14 0 43 -20 30 -20 -5
0 -2 -7 8 -14 15 -12 16 -16 4 -27 -7 -8 -12 -20 -9 -27 2 -6 -2 -12 -10 -13
-7 -1 -22 -2 -32 -3 -11 0 -21 -7 -23 -13 -3 -9 8 -13 36 -13 22 0 42 -4 45
-9 6 -9 90 -51 102 -51 3 0 4 7 0 15 -4 10 1 14 17 12 17 -1 21 3 19 18 -2 11
-12 27 -23 35 -27 21 -11 34 18 15 21 -14 26 -14 48 2 13 10 24 23 24 28 0 12
-82 55 -106 55 -12 0 -14 3 -6 8 23 15 3 62 -26 62 -10 0 -24 7 -31 15 -7 8
-21 15 -30 15 -10 0 -20 3 -22 8 -2 4 -15 18 -30 31 -22 19 -40 24 -115 27
-83 4 -91 3 -110 -18 -24 -27 -36 -58 -23 -58 6 0 10 -8 10 -19 0 -13 9 -20
30 -25 36 -7 51 -34 26 -48 -9 -5 -13 -14 -10 -20 4 -7 2 -8 -5 -4 -6 4 -9 12
-6 17 7 10 -8 41 -18 40 -21 -3 -27 0 -27 14 0 8 -5 26 -12 40 -8 18 -14 22
-20 13 -6 -10 -8 -10 -8 0 0 6 9 21 21 33 26 26 20 43 -18 47 -23 2 -35 -3
-46 -18z m280 -36 c-3 -3 -12 -4 -19 -1 -8 3 -5 6 6 6 11 1 17 -2 13 -5z
m-312 -544 c8 -16 15 -31 15 -35 0 -9 -36 31 -43 48 -11 29 12 19 28 -13z
m115 -190 c0 -5 -4 -10 -10 -10 -5 0 -10 5 -10 10 0 6 5 10 10 10 6 0 10 -4
10 -10z m-190 -160 c0 -5 -5 -10 -11 -10 -5 0 -7 5 -4 10 3 6 8 10 11 10 2 0
4 -4 4 -10z"/>
<path d="M4790 3379 c0 -5 5 -7 10 -4 6 3 10 8 10 11 0 2 -4 4 -10 4 -5 0 -10
-5 -10 -11z"/>
<path d="M2305 3372 c-5 -4 -15 -16 -21 -27 -15 -28 12 -56 44 -44 25 9 30 37
8 45 -8 3 -12 12 -9 20 6 15 -6 18 -22 6z"/>
<path d="M2828 3373 c7 -3 16 -2 19 1 4 3 -2 6 -13 5 -11 0 -14 -3 -6 -6z"/>
<path d="M4164 3364 c7 -8 17 -9 29 -3 24 13 22 16 -12 16 -22 0 -26 -3 -17
-13z"/>
<path d="M3740 3344 c0 -8 5 -12 10 -9 6 3 10 10 10 16 0 5 -4 9 -10 9 -5 0
-10 -7 -10 -16z"/>
<path d="M6030 3350 c8 -5 20 -10 25 -10 6 0 3 5 -5 10 -8 5 -19 10 -25 10 -5
0 -3 -5 5 -10z"/>
<path d="M3816 3328 c4 -13 12 -26 18 -30 10 -7 1 -12 -16 -9 -5 0 -8 -3 -8
-9 0 -5 9 -10 21 -10 16 0 19 -4 14 -20 -5 -15 -3 -18 8 -14 8 3 18 1 22 -5 3
-6 -5 -15 -19 -21 -14 -5 -26 -15 -26 -21 0 -6 7 -8 16 -5 9 3 23 6 32 6 14 0
14 2 3 9 -11 7 -9 11 8 21 15 7 20 17 16 29 -3 12 0 18 10 18 8 0 15 -7 15
-14 0 -11 8 -13 29 -8 17 3 32 2 36 -5 3 -5 10 -8 15 -5 5 3 12 1 15 -5 4 -6
16 -8 27 -4 17 5 20 3 14 -12 -5 -13 0 -11 16 7 13 15 32 31 42 37 19 9 19 10
-1 16 -22 7 -38 34 -27 45 4 3 9 0 11 -6 5 -15 33 -17 33 -3 0 5 -13 16 -30
25 l-30 16 0 -33 c0 -18 -4 -28 -8 -21 -5 8 -21 9 -49 4 -23 -5 -45 -6 -48 -3
-3 3 -13 7 -23 8 -9 2 -18 7 -20 13 -2 6 -16 8 -33 4 -19 -3 -29 -1 -29 6 0 8
-8 10 -20 6 -11 -4 -20 -2 -20 4 0 6 -5 11 -11 11 -6 0 -8 -9 -3 -22z m254
-78 c-28 -21 -33 -20 -24 4 4 9 13 15 20 12 8 -3 14 0 14 6 0 6 3 8 7 4 4 -4
-3 -16 -17 -26z"/>
<path d="M4193 3335 c-18 -20 -16 -25 9 -25 12 0 18 3 15 7 -4 3 1 12 11 19
16 12 16 13 -3 13 -11 0 -26 -6 -32 -14z"/>
<path d="M6146 3315 c43 -41 58 -45 42 -10 -6 14 -19 25 -29 25 -10 0 -21 5
-24 10 -3 6 -11 10 -16 10 -6 0 6 -16 27 -35z"/>
<path d="M3777 3316 c-17 -13 -16 -14 3 -19 15 -4 20 0 20 14 0 22 0 22 -23 5z"/>
<path d="M4020 3320 c0 -5 5 -10 10 -10 6 0 10 5 10 10 0 6 -4 10 -10 10 -5 0
-10 -4 -10 -10z"/>
<path d="M4490 3320 c0 -5 5 -10 10 -10 6 0 10 5 10 10 0 6 -4 10 -10 10 -5 0
-10 -4 -10 -10z"/>
<path d="M3710 3266 c0 -9 5 -16 10 -16 6 0 10 4 10 9 0 6 -4 13 -10 16 -5 3
-10 -1 -10 -9z"/>
<path d="M6270 3266 c0 -9 5 -16 10 -16 6 0 10 4 10 9 0 6 -4 13 -10 16 -5 3
-10 -1 -10 -9z"/>
<path d="M2196 3251 c-15 -17 -15 -19 -1 -25 9 -3 28 -6 42 -6 22 0 24 2 13
15 -11 13 -10 14 4 9 9 -3 16 -2 16 4 0 10 -23 22 -44 22 -7 0 -21 -8 -30 -19z"/>
<path d="M4180 3260 c0 -5 4 -10 9 -10 6 0 13 5 16 10 3 6 -1 10 -9 10 -9 0
-16 -4 -16 -10z"/>
<path d="M3630 3235 c0 -8 2 -15 4 -15 2 0 6 7 10 15 3 8 1 15 -4 15 -6 0 -10
-7 -10 -15z"/>
<path d="M4103 3228 c-5 -7 -9 -20 -8 -28 0 -8 -3 -18 -9 -21 -5 -4 1 -17 13
-30 11 -12 23 -20 26 -17 3 3 -2 13 -11 22 -12 12 -14 20 -6 28 6 6 8 17 5 24
-3 8 0 14 6 14 6 0 11 5 11 10 0 14 -16 12 -27 -2z"/>
<path d="M4182 3208 c-18 -18 -15 -28 8 -28 13 0 20 7 20 20 0 23 -10 26 -28
8z"/>
<path d="M2970 3200 c0 -5 5 -10 10 -10 6 0 10 5 10 10 0 6 -4 10 -10 10 -5 0
-10 -4 -10 -10z"/>
<path d="M3640 3161 c0 -5 5 -13 10 -16 6 -3 10 -2 10 4 0 5 -4 13 -10 16 -5
3 -10 2 -10 -4z"/>
<path d="M3500 3156 c0 -2 9 -6 20 -9 11 -3 18 -1 14 4 -5 9 -34 13 -34 5z"/>
<path d="M3705 3146 c-42 -10 -64 -10 -76 -3 -27 17 -52 -8 -37 -37 7 -11 12
-25 13 -31 0 -5 9 -11 20 -11 11 -1 32 -5 48 -9 16 -4 27 -3 27 3 0 6 13 13
29 17 32 7 47 31 31 50 -6 8 -6 15 2 23 7 7 10 12 8 11 -3 0 -32 -6 -65 -13z"/>
<path d="M1272 3121 c-8 -4 -10 -15 -6 -26 7 -17 8 -16 16 5 10 27 7 32 -10
21z"/>
<path d="M1305 3120 c3 -5 8 -10 11 -10 2 0 4 5 4 10 0 6 -5 10 -11 10 -5 0
-7 -4 -4 -10z"/>
<path d="M1594 3119 c-3 -6 -2 -15 4 -21 6 -6 11 -2 15 11 5 22 -7 29 -19 10z"/>
<path d="M6410 3101 c0 -5 15 -22 33 -36 17 -15 24 -25 15 -21 -12 3 -18 0
-18 -9 0 -19 9 -19 31 1 17 15 16 17 -16 45 -34 30 -45 35 -45 20z"/>
<path d="M3881 3090 c-7 -4 -12 -12 -10 -18 3 -7 10 -6 22 3 20 14 9 29 -12
15z"/>
<path d="M4100 3090 c0 -5 7 -7 15 -4 8 4 15 8 15 10 0 2 -7 4 -15 4 -8 0 -15
-4 -15 -10z"/>
<path d="M2571 3051 c-8 -6 -9 -11 -3 -15 6 -3 14 -1 17 5 9 14 2 20 -14 10z"/>
<path d="M2620 3030 c0 -5 5 -10 10 -10 6 0 10 5 10 10 0 6 -4 10 -10 10 -5 0
-10 -4 -10 -10z"/>
<path d="M2665 2990 c2 -28 8 -57 15 -65 14 -17 4 -55 -21 -72 -10 -8 -15 -20
-12 -33 7 -28 22 -25 16 3 -4 18 -3 19 7 7 9 -13 10 -12 8 4 -2 10 3 21 10 23
6 3 12 0 12 -7 0 -6 4 -9 9 -6 5 3 21 -1 37 -9 28 -14 57 -9 33 6 -11 7 -11 9
2 9 9 0 22 -6 29 -14 6 -8 17 -13 24 -10 8 3 15 -5 18 -20 3 -14 0 -27 -5 -29
-6 -2 -8 -11 -4 -20 13 -34 187 1 194 39 1 7 -7 20 -17 29 -11 10 -20 13 -20
8 0 -6 -15 -13 -32 -16 -18 -3 -42 -8 -53 -12 -11 -4 -15 -3 -9 2 14 11 26 43
16 43 -5 0 -14 -6 -22 -12 -8 -7 -7 -4 2 7 9 11 20 32 23 47 6 23 3 29 -18 37
-13 5 -49 9 -78 9 -98 -1 -98 -1 -65 27 l29 25 -28 22 c-15 12 -45 23 -66 25
l-38 4 4 -51z"/>
<path d="M6468 2994 c12 -8 20 -20 17 -25 -3 -5 1 -6 9 -3 23 9 28 33 5 27
-10 -3 -19 0 -19 6 0 6 -8 11 -17 11 -14 0 -13 -3 5 -16z"/>
<path d="M3683 2983 c-15 -5 -18 -33 -4 -33 13 0 33 28 24 33 -4 2 -14 2 -20
0z"/>
<path d="M3970 2980 c0 -5 5 -10 11 -10 5 0 7 5 4 10 -3 6 -8 10 -11 10 -2 0
-4 -4 -4 -10z"/>
<path d="M3492 2959 c2 -6 8 -10 13 -10 5 0 11 4 13 10 2 6 -4 11 -13 11 -9 0
-15 -5 -13 -11z"/>
<path d="M3582 2940 c-25 -20 -21 -43 6 -38 9 2 16 14 16 31 1 15 2 27 1 27 0
-1 -10 -9 -23 -20z"/>
<path d="M3520 2940 c0 -5 5 -10 10 -10 6 0 10 5 10 10 0 6 -4 10 -10 10 -5 0
-10 -4 -10 -10z"/>
<path d="M3660 2910 c0 -5 5 -10 10 -10 6 0 10 5 10 10 0 6 -4 10 -10 10 -5 0
-10 -4 -10 -10z"/>
<path d="M4066 2905 c-9 -23 -8 -25 9 -25 17 0 19 9 6 28 -7 11 -10 10 -15 -3z"/>
<path d="M3220 2770 c0 -5 5 -10 10 -10 6 0 10 5 10 10 0 6 -4 10 -10 10 -5 0
-10 -4 -10 -10z"/>
<path d="M2815 2750 c3 -5 8 -10 11 -10 2 0 4 5 4 10 0 6 -5 10 -11 10 -5 0
-7 -4 -4 -10z"/>
<path d="M2650 2720 c0 -12 28 -21 35 -11 2 5 -4 11 -15 14 -11 3 -20 2 -20
-3z"/>
<path d="M2739 2707 c-13 -12 -27 -21 -31 -19 -5 1 -8 -3 -8 -9 0 -6 7 -9 15
-6 8 4 17 2 20 -3 8 -13 43 10 48 31 7 27 -18 30 -44 6z"/>
<path d="M3130 2704 c-14 -7 -19 -14 -12 -14 6 0 12 -9 12 -20 0 -40 49 -8 50
33 0 20 -15 20 -50 1z"/>
<path d="M3070 2685 c0 -8 5 -15 10 -15 6 0 10 7 10 15 0 8 -4 15 -10 15 -5 0
-10 -7 -10 -15z"/>
<path d="M2760 2660 c0 -5 5 -10 10 -10 6 0 10 5 10 10 0 6 -4 10 -10 10 -5 0
-10 -4 -10 -10z"/>
<path d="M6493 2663 c9 -2 23 -2 30 0 6 3 -1 5 -18 5 -16 0 -22 -2 -12 -5z"/>
<path d="M3110 2625 c0 -8 4 -15 10 -15 5 0 7 7 4 15 -4 8 -8 15 -10 15 -2 0
-4 -7 -4 -15z"/>
<path d="M2990 2609 c0 -5 5 -7 10 -4 6 3 10 8 10 11 0 2 -4 4 -10 4 -5 0 -10
-5 -10 -11z"/>
<path d="M3735 2610 c3 -5 8 -10 11 -10 2 0 4 5 4 10 0 6 -5 10 -11 10 -5 0
-7 -4 -4 -10z"/>
<path d="M2527 2594 c3 -7 9 -14 14 -14 14 0 10 17 -5 23 -10 4 -13 1 -9 -9z"/>
<path d="M3160 2594 c0 -8 5 -12 10 -9 6 4 8 11 5 16 -9 14 -15 11 -15 -7z"/>
<path d="M3631 2583 c7 -10 15 -20 16 -22 1 -2 9 1 17 8 8 6 18 11 22 10 19
-3 34 2 34 11 0 6 -23 10 -51 10 -47 0 -50 -1 -38 -17z"/>
<path d="M3771 2584 c0 -11 3 -14 6 -6 3 7 2 16 -1 19 -3 4 -6 -2 -5 -13z"/>
<path d="M6418 2573 c7 -3 16 -2 19 1 4 3 -2 6 -13 5 -11 0 -14 -3 -6 -6z"/>
<path d="M3330 2560 c0 -5 7 -10 15 -10 8 0 15 5 15 10 0 6 -7 10 -15 10 -8 0
-15 -4 -15 -10z"/>
<path d="M3490 2550 c0 -5 7 -10 16 -10 8 0 12 5 9 10 -3 6 -10 10 -16 10 -5
0 -9 -4 -9 -10z"/>
<path d="M6290 2540 c0 -5 12 -10 28 -10 21 0 24 2 12 10 -20 13 -40 13 -40 0z"/>
<path d="M6365 2540 c3 -5 11 -10 16 -10 6 0 7 5 4 10 -3 6 -11 10 -16 10 -6
0 -7 -4 -4 -10z"/>
<path d="M3635 2520 c3 -5 10 -10 16 -10 5 0 9 5 9 10 0 6 -7 10 -16 10 -8 0
-12 -4 -9 -10z"/>
<path d="M6095 2520 c-3 -5 -1 -11 4 -15 15 -8 70 -2 64 8 -3 4 -7 6 -10 3 -3
-2 -16 -1 -29 4 -14 6 -26 6 -29 0z"/>
<path d="M6413 2523 c9 -2 23 -2 30 0 6 3 -1 5 -18 5 -16 0 -22 -2 -12 -5z"/>
<path d="M3196 2511 c-5 -8 -3 -17 5 -22 17 -11 39 -12 23 -1 -6 4 -13 14 -16
22 -3 11 -6 11 -12 1z"/>
<path d="M3275 2510 c-3 -6 1 -7 9 -4 18 7 21 14 7 14 -6 0 -13 -4 -16 -10z"/>
<path d="M3788 2513 c7 -3 16 -2 19 1 4 3 -2 6 -13 5 -11 0 -14 -3 -6 -6z"/>
<path d="M3230 2506 c0 -2 8 -10 18 -17 15 -13 16 -12 3 4 -13 16 -21 21 -21
13z"/>
<path d="M3600 2490 c0 -11 5 -20 10 -20 6 0 10 9 10 20 0 11 -4 20 -10 20 -5
0 -10 -9 -10 -20z"/>
<path d="M3658 2493 c7 -3 16 -2 19 1 4 3 -2 6 -13 5 -11 0 -14 -3 -6 -6z"/>
<path d="M2407 2483 c-3 -5 -2 -15 2 -22 7 -10 10 -10 16 -1 4 6 3 16 -3 22
-5 5 -12 6 -15 1z"/>
<path d="M6080 2479 c0 -5 5 -7 10 -4 6 3 10 8 10 11 0 2 -4 4 -10 4 -5 0 -10
-5 -10 -11z"/>
<path d="M2517 2466 c-3 -8 -19 -17 -36 -21 -32 -7 -40 -20 -18 -28 7 -4 6 -6
-5 -6 -14 -1 -15 -6 -6 -36 6 -19 15 -32 19 -29 4 2 10 0 14 -6 4 -6 11 -8 16
-5 12 8 12 45 -1 45 -15 0 -12 38 4 47 7 4 17 18 20 31 8 24 2 31 -7 8z"/>
<path d="M3585 2450 c-3 -5 1 -10 9 -10 8 0 18 5 21 10 3 6 -1 10 -9 10 -8 0
-18 -4 -21 -10z"/>
<path d="M6350 2440 c0 -6 7 -10 15 -10 8 0 15 2 15 4 0 2 -7 6 -15 10 -8 3
-15 1 -15 -4z"/>
<path d="M2944 2418 c-19 -21 -19 -21 1 -13 11 4 29 9 40 10 11 2 22 4 25 4 8
2 -24 21 -36 21 -6 0 -19 -10 -30 -22z"/>
<path d="M3199 2433 c-1 -5 -1 -12 0 -17 1 -4 -4 -14 -10 -22 -8 -10 -8 -14 0
-14 6 0 11 5 11 12 0 6 3 8 7 5 3 -4 12 1 19 11 12 15 13 14 14 -10 0 -23 5
-28 24 -28 19 0 24 5 22 25 -1 17 -7 25 -18 25 -10 0 -18 5 -18 10 0 11 -49
14 -51 3z"/>
<path d="M6093 2419 c-7 -7 -13 -10 -13 -7 0 4 -11 -3 -25 -15 l-24 -22 32 -8
c93 -24 221 -36 235 -22 10 10 -3 13 -83 19 -44 3 -81 6 -82 6 -2 0 -3 4 -3
10 0 16 71 23 119 12 25 -6 62 -14 81 -17 33 -7 34 -6 15 8 -11 9 -30 13 -42
10 -14 -3 -23 -1 -23 7 0 6 -8 10 -17 8 -10 -1 -22 0 -28 4 -23 14 -130 19
-142 7z"/>
<path d="M3670 2410 c0 -5 -9 -10 -19 -10 -11 0 -23 -9 -26 -20 -3 -11 -11
-20 -16 -20 -5 0 -9 -4 -9 -10 0 -5 9 -10 20 -10 10 0 24 -8 30 -17 8 -14 9
-11 5 16 -5 26 -1 39 16 57 13 13 17 24 11 24 -7 0 -12 -4 -12 -10z"/>
<path d="M3498 2403 c7 -3 16 -2 19 1 4 3 -2 6 -13 5 -11 0 -14 -3 -6 -6z"/>
<path d="M3700 2380 c0 -5 5 -10 10 -10 6 0 10 5 10 10 0 6 -4 10 -10 10 -5 0
-10 -4 -10 -10z"/>
<path d="M3151 2354 c0 -11 3 -14 6 -6 3 7 2 16 -1 19 -3 4 -6 -2 -5 -13z"/>
<path d="M2920 2331 c0 -6 5 -13 10 -16 6 -3 10 1 10 9 0 9 -4 16 -10 16 -5 0
-10 -4 -10 -9z"/>
<path d="M3755 2309 c-4 -6 -13 -8 -21 -5 -7 3 -16 1 -19 -4 -4 -6 7 -10 24
-10 21 0 31 5 31 15 0 18 -6 19 -15 4z"/>
<path d="M3624 2291 c3 -5 15 -7 26 -4 28 7 25 13 -6 13 -14 0 -23 -4 -20 -9z"/>
<path d="M3545 2279 c-4 -6 -5 -13 -2 -16 7 -7 27 6 27 18 0 12 -17 12 -25 -2z"/>
<path d="M1510 2274 c0 -3 14 -10 30 -15 17 -6 30 -15 30 -20 0 -5 7 -9 15 -9
8 0 23 -10 35 -22 11 -12 20 -17 20 -11 0 14 -25 39 -52 54 -26 14 -78 29 -78
23z"/>
<path d="M3590 2270 c0 -5 4 -10 9 -10 6 0 13 5 16 10 3 6 -1 10 -9 10 -9 0
-16 -4 -16 -10z"/>
<path d="M3649 2253 c-13 -16 -12 -17 4 -4 9 7 17 15 17 17 0 8 -8 3 -21 -13z"/>
<path d="M2179 2233 c4 -15 14 -29 22 -31 11 -4 12 -3 1 10 -10 13 -10 17 3
22 21 7 10 26 -15 26 -15 0 -17 -5 -11 -27z"/>
<path d="M2739 2165 c-3 -11 3 -29 13 -39 14 -16 20 -17 33 -6 22 18 18 30 -9
30 -15 0 -26 7 -28 18 -4 15 -5 14 -9 -3z"/>
<path d="M3320 2150 c0 -5 5 -10 11 -10 5 0 7 5 4 10 -3 6 -8 10 -11 10 -2 0
-4 -4 -4 -10z"/>
<path d="M2330 2124 c0 -8 5 -12 10 -9 6 4 8 11 5 16 -9 14 -15 11 -15 -7z"/>
<path d="M2470 2114 c0 -8 5 -12 10 -9 6 3 10 10 10 16 0 5 -4 9 -10 9 -5 0
-10 -7 -10 -16z"/>
<path d="M2420 2100 c0 -5 5 -10 11 -10 5 0 7 5 4 10 -3 6 -8 10 -11 10 -2 0
-4 -4 -4 -10z"/>
<path d="M2515 2070 c-3 -5 -1 -10 4 -10 6 0 11 5 11 10 0 6 -2 10 -4 10 -3 0
-8 -4 -11 -10z"/>
<path d="M2825 2050 c-3 -5 -1 -10 4 -10 6 0 11 5 11 10 0 6 -2 10 -4 10 -3 0
-8 -4 -11 -10z"/>
<path d="M2530 2019 c0 -5 5 -7 10 -4 6 3 10 8 10 11 0 2 -4 4 -10 4 -5 0 -10
-5 -10 -11z"/>
<path d="M2710 1964 c0 -16 7 -20 34 -21 32 -1 34 1 23 18 -13 22 -23 24 -33
8 -4 -8 -9 -7 -15 2 -7 11 -9 9 -9 -7z"/>
<path d="M2866 1969 c2 -4 -10 -19 -27 -34 -30 -25 -31 -27 -13 -40 18 -13 18
-14 2 -20 -15 -6 -17 -15 -12 -46 5 -32 3 -43 -12 -53 -10 -8 -23 -12 -30 -9
-6 2 -14 -5 -17 -16 -3 -14 1 -22 14 -26 10 -4 22 -4 27 -1 4 2 14 0 22 -5 13
-8 13 -10 0 -19 -10 -6 -11 -10 -3 -10 9 0 11 -13 9 -40 -2 -21 -1 -39 2 -38
4 0 15 0 26 -1 15 -1 16 -4 6 -15 -6 -8 -21 -16 -33 -18 -14 -2 -21 -10 -21
-20 1 -11 -3 -15 -10 -11 -6 4 -6 0 2 -9 10 -13 9 -16 -6 -20 -9 -3 -23 1 -30
9 -18 18 -43 17 -36 -2 4 -9 11 -14 18 -13 6 1 22 -4 36 -11 17 -10 25 -11 28
-2 2 6 7 9 12 6 4 -3 6 4 3 15 -3 12 0 20 6 20 7 0 10 4 7 9 -3 5 3 11 13 14
10 2 18 -1 18 -7 -1 -52 5 -76 18 -76 18 0 20 -20 3 -21 -7 0 -2 -5 12 -11 15
-6 20 -12 13 -15 -18 -7 -16 -23 2 -23 9 0 21 -11 27 -25 6 -14 15 -25 20 -25
4 0 8 -5 8 -11 0 -5 -4 -7 -10 -4 -6 3 -7 -1 -4 -10 4 -11 2 -14 -9 -9 -20 7
-34 -16 -16 -27 19 -11 20 -49 1 -49 -12 0 -12 3 -2 15 10 12 10 15 -4 15 -9
0 -16 -5 -16 -10 0 -6 -5 -9 -12 -8 -7 2 -12 -2 -13 -9 0 -6 -3 -15 -7 -19
-17 -16 -7 -45 18 -54 34 -13 37 -13 30 6 -5 12 -2 15 10 10 10 -4 14 -1 12 6
-3 7 -15 15 -29 19 -28 8 -25 10 19 12 19 1 36 -1 39 -5 2 -5 -2 -8 -9 -8 -7
0 -2 -7 11 -16 17 -13 25 -14 34 -5 9 9 8 11 -4 6 -10 -4 -20 -2 -24 4 -5 10
20 15 63 14 6 -1 12 7 12 18 0 26 21 35 35 16 17 -24 28 -21 48 14 20 35 22
49 6 49 -5 0 -7 -6 -3 -12 5 -9 2 -9 -9 1 -14 11 -17 11 -17 -1 0 -7 -9 -14
-20 -15 -13 -1 -18 2 -13 10 4 7 -1 6 -11 -2 -12 -10 -20 -11 -27 -4 -8 8 -5
13 11 18 14 4 19 12 16 22 -4 9 6 41 20 72 25 52 28 54 37 34 10 -23 27 -31
27 -14 0 21 -31 81 -40 76 -5 -3 -7 -11 -4 -18 2 -7 -4 -13 -16 -14 -11 -1
-20 3 -20 8 0 6 5 7 10 4 6 -3 10 -2 10 2 0 5 -9 14 -21 21 -16 11 -19 19 -13
45 8 37 21 49 47 41 23 -7 22 1 -5 27 l-23 22 23 -6 c16 -4 22 -1 22 11 1 15
3 14 15 -2 13 -17 17 -14 14 10 0 4 5 11 13 15 11 7 10 11 -2 19 -8 5 -10 10
-4 10 16 0 33 -21 27 -36 -3 -8 1 -14 11 -14 9 0 13 -6 10 -14 -3 -8 0 -17 6
-21 9 -5 5 -14 -11 -29 -26 -23 -35 -68 -12 -59 7 3 13 0 13 -6 0 -6 -7 -11
-15 -11 -19 0 -37 -42 -22 -51 5 -4 7 -13 4 -21 -4 -11 1 -14 19 -10 16 3 23
10 20 18 -7 18 5 18 30 -1 25 -19 27 -19 53 4 16 14 24 35 28 75 3 31 9 56 14
56 13 0 54 74 54 99 1 15 -6 26 -17 29 -10 2 -18 9 -18 14 0 14 -57 35 -90 33
-16 -1 -31 4 -34 11 -3 7 -18 15 -35 19 -22 5 -28 10 -24 23 6 15 5 15 -14 0
-11 -10 -26 -18 -34 -18 -11 0 -11 2 -1 9 8 5 11 17 7 32 -11 42 -32 62 -72
65 -21 1 -50 7 -64 13 -15 5 -30 7 -34 3 -4 -4 -5 2 -3 13 2 13 -6 24 -27 34
-31 15 -77 22 -69 10z m14 -49 c0 -5 -4 -10 -9 -10 -6 0 -13 5 -16 10 -3 6 1
10 9 10 9 0 16 -4 16 -10z m-15 -30 c3 -5 1 -10 -4 -10 -6 0 -11 5 -11 10 0 6
2 10 4 10 3 0 8 -4 11 -10z m35 -1 c0 -7 10 -9 25 -7 14 3 25 1 25 -3 0 -5 -7
-9 -15 -9 -8 0 -15 -3 -15 -7 1 -14 27 -43 38 -43 6 0 14 -5 18 -12 5 -8 1 -9
-12 -5 -18 7 -18 7 0 -8 17 -13 18 -15 3 -15 -9 0 -17 -5 -17 -11 0 -5 -4 -7
-10 -4 -5 3 -10 1 -10 -6 0 -9 -3 -9 -14 1 -8 6 -13 17 -10 24 3 8 -2 16 -11
20 -9 3 -13 2 -10 -4 8 -13 -6 -13 -25 0 -24 16 7 31 38 19 14 -5 27 -7 30 -4
3 3 -1 5 -8 5 -7 0 -10 3 -7 6 3 4 -3 18 -13 32 -22 27 -25 42 -10 42 6 0 10
-5 10 -11z m70 -152 c-19 -15 -24 -38 -10 -47 6 -4 0 -11 -15 -18 -15 -7 -24
-8 -20 -3 3 6 -4 15 -16 21 -11 7 -18 14 -16 17 3 2 14 0 25 -6 16 -8 21 -7
26 5 4 11 2 15 -8 11 -8 -3 -17 -3 -20 0 -9 9 26 32 49 32 17 0 18 -1 5 -12z
m64 -4 c7 -17 -21 -49 -33 -37 -3 3 1 9 8 14 8 4 11 15 8 24 -4 9 -2 16 2 16
5 0 12 -8 15 -17z m126 -13 c0 -5 -2 -10 -4 -10 -3 0 -8 5 -11 10 -3 6 -1 10
4 10 6 0 11 -4 11 -10z m-45 -40 c3 -6 -1 -7 -9 -4 -18 7 -21 14 -7 14 6 0 13
-4 16 -10z m-140 -40 c3 -5 1 -10 -4 -10 -6 0 -11 5 -11 10 0 6 2 10 4 10 3 0
8 -4 11 -10z m54 -58 c-6 -3 -5 -10 3 -20 12 -14 10 -14 -12 -2 -15 8 -20 15
-12 18 6 2 12 11 12 20 0 15 2 15 10 2 6 -10 6 -16 -1 -18z m206 -22 c19 -8
19 -9 -2 -9 -12 -1 -25 4 -28 9 -7 12 2 12 30 0z m71 -69 c-6 -9 -46 -22 -46
-15 0 3 10 9 23 14 29 11 29 11 23 1z m-231 -41 c-3 -5 -11 -10 -16 -10 -6 0
-7 5 -4 10 3 6 11 10 16 10 6 0 7 -4 4 -10z m-60 -200 c-3 -5 -11 -10 -16 -10
-6 0 -7 5 -4 10 3 6 11 10 16 10 6 0 7 -4 4 -10z m-105 -50 c0 -5 -4 -10 -10
-10 -5 0 -10 5 -10 10 0 6 5 10 10 10 6 0 10 -4 10 -10z"/>
<path d="M2790 1940 c0 -5 5 -10 11 -10 5 0 7 5 4 10 -3 6 -8 10 -11 10 -2 0
-4 -4 -4 -10z"/>
<path d="M4870 1940 c0 -5 4 -10 9 -10 6 0 13 5 16 10 3 6 -1 10 -9 10 -9 0
-16 -4 -16 -10z"/>
<path d="M2740 1930 c0 -5 5 -10 11 -10 5 0 7 5 4 10 -3 6 -8 10 -11 10 -2 0
-4 -4 -4 -10z"/>
<path d="M3270 1914 c0 -8 5 -12 10 -9 6 4 8 11 5 16 -9 14 -15 11 -15 -7z"/>
<path d="M3145 1840 c3 -5 8 -10 11 -10 2 0 4 5 4 10 0 6 -5 10 -11 10 -5 0
-7 -4 -4 -10z"/>
<path d="M4890 1826 c0 -9 7 -16 16 -16 17 0 14 22 -4 28 -7 2 -12 -3 -12 -12z"/>
<path d="M3245 1820 c-3 -5 1 -10 10 -10 9 0 13 5 10 10 -3 6 -8 10 -10 10 -2
0 -7 -4 -10 -10z"/>
<path d="M2426 1795 c4 -8 10 -15 15 -15 4 0 6 7 3 15 -4 8 -10 15 -15 15 -4
0 -6 -7 -3 -15z"/>
<path d="M2716 1794 c-5 -14 -4 -15 9 -4 17 14 19 20 6 20 -5 0 -12 -7 -15
-16z"/>
<path d="M2721 1758 c-14 -23 -14 -23 8 -4 22 20 25 26 13 26 -4 0 -13 -10
-21 -22z"/>
<path d="M4900 1766 c0 -23 23 -36 37 -21 13 14 11 17 -19 28 -12 4 -18 1 -18
-7z"/>
<path d="M4845 1760 c4 -6 11 -8 16 -5 14 9 11 15 -7 15 -8 0 -12 -5 -9 -10z"/>
<path d="M2645 1741 c-2 -5 8 -11 23 -14 35 -7 38 -3 7 11 -13 6 -27 7 -30 3z"/>
<path d="M2658 1703 c7 -3 16 -2 19 1 4 3 -2 6 -13 5 -11 0 -14 -3 -6 -6z"/>
<path d="M2735 1690 c3 -5 -1 -11 -7 -13 -7 -3 -1 -6 15 -6 31 -1 36 14 7 22
-11 3 -18 1 -15 -3z"/>
<path d="M4895 1680 c-3 -5 1 -10 10 -10 9 0 13 5 10 10 -3 6 -8 10 -10 10 -2
0 -7 -4 -10 -10z"/>
<path d="M2666 1664 c-4 -9 -4 -19 -1 -22 2 -3 7 3 11 12 4 9 4 19 1 22 -2 3
-7 -3 -11 -12z"/>
<path d="M4700 1636 c0 -10 9 -16 21 -16 24 0 21 23 -4 28 -10 2 -17 -3 -17
-12z"/>
<path d="M4751 1624 c0 -11 3 -14 6 -6 3 7 2 16 -1 19 -3 4 -6 -2 -5 -13z"/>
<path d="M2766 1598 c3 -4 12 -8 20 -8 11 0 10 -5 -6 -22 -11 -12 -18 -24 -15
-26 3 -3 6 -3 8 -1 1 2 12 16 25 30 l23 27 -30 4 c-16 2 -28 1 -25 -4z"/>
<path d="M4760 1590 c0 -5 5 -10 11 -10 5 0 7 5 4 10 -3 6 -8 10 -11 10 -2 0
-4 -4 -4 -10z"/>
<path d="M4160 1576 c0 -8 5 -18 10 -21 6 -3 10 1 10 9 0 8 -4 18 -10 21 -5 3
-10 -1 -10 -9z"/>
<path d="M4822 1561 c-8 -17 -25 -34 -42 -40 -26 -8 -30 -15 -30 -45 0 -19 -4
-37 -8 -40 -4 -2 -8 -19 -7 -38 0 -27 5 -34 28 -43 24 -8 31 -6 43 10 13 17
16 18 24 5 5 -8 10 -10 11 -5 3 19 -3 50 -11 60 -4 6 1 35 11 65 22 66 22 62
7 83 -12 16 -14 15 -26 -12z"/>
<path d="M2735 1570 c-3 -5 -1 -10 4 -10 6 0 11 5 11 10 0 6 -2 10 -4 10 -3 0
-8 -4 -11 -10z"/>
<path d="M3150 1541 c0 -6 5 -13 10 -16 6 -3 10 1 10 9 0 9 -4 16 -10 16 -5 0
-10 -4 -10 -9z"/>
<path d="M4022 1543 c-15 -6 -6 -23 14 -23 8 0 14 7 14 15 0 15 -6 17 -28 8z"/>
<path d="M4890 1529 c0 -5 5 -7 10 -4 6 3 10 8 10 11 0 2 -4 4 -10 4 -5 0 -10
-5 -10 -11z"/>
<path d="M4910 1516 c0 -2 7 -7 16 -10 8 -3 12 -2 9 4 -6 10 -25 14 -25 6z"/>
<path d="M4886 1502 c-3 -6 -1 -14 5 -17 14 -9 20 -2 10 14 -6 8 -11 9 -15 3z"/>
<path d="M2640 1465 c-16 -19 0 -19 26 0 16 12 16 14 3 15 -9 0 -22 -7 -29
-15z"/>
<path d="M4125 1460 c-3 -5 -1 -10 4 -10 6 0 11 5 11 10 0 6 -2 10 -4 10 -3 0
-8 -4 -11 -10z"/>
<path d="M4643 1462 c-8 -5 -6 -13 7 -29 15 -19 19 -20 24 -7 9 23 7 27 -8 21
-10 -4 -13 -1 -9 9 6 16 3 17 -14 6z"/>
<path d="M2813 1438 c-9 -12 -33 -137 -33 -173 0 -10 7 -15 18 -13 11 2 26 -3
35 -10 27 -23 41 -3 15 21 -13 12 -22 30 -20 40 2 9 -2 17 -8 17 -6 0 -9 4 -6
9 6 9 16 121 11 121 -1 0 -7 -6 -12 -12z"/>
<path d="M4690 1440 c0 -5 5 -10 10 -10 6 0 10 5 10 10 0 6 -4 10 -10 10 -5 0
-10 -4 -10 -10z"/>
<path d="M4890 1440 c0 -5 7 -10 16 -10 8 0 12 5 9 10 -3 6 -10 10 -16 10 -5
0 -9 -4 -9 -10z"/>
<path d="M3164 1401 c4 -7 -1 -11 -13 -11 -12 0 -21 -4 -21 -9 0 -8 17 -8 78
1 6 1 12 5 12 11 0 5 -6 7 -12 4 -7 -2 -21 0 -32 5 -13 7 -16 7 -12 -1z"/>
<path d="M2570 1384 c0 -8 5 -12 10 -9 6 4 8 11 5 16 -9 14 -15 11 -15 -7z"/>
<path d="M3990 1385 c0 -9 5 -15 11 -13 6 2 11 8 11 13 0 5 -5 11 -11 13 -6 2
-11 -4 -11 -13z"/>
<path d="M4656 1386 c3 -9 11 -16 16 -16 13 0 5 23 -10 28 -7 2 -10 -2 -6 -12z"/>
<path d="M3085 1369 c-4 -6 -5 -13 -2 -16 7 -7 27 6 27 18 0 12 -17 12 -25 -2z"/>
<path d="M3110 1339 c0 -5 5 -7 10 -4 6 3 10 8 10 11 0 2 -4 4 -10 4 -5 0 -10
-5 -10 -11z"/>
<path d="M4637 1333 c-4 -3 -7 -11 -7 -17 0 -6 5 -5 12 2 6 6 9 14 7 17 -3 3
-9 2 -12 -2z"/>
<path d="M5010 1330 c0 -5 5 -10 10 -10 6 0 10 5 10 10 0 6 -4 10 -10 10 -5 0
-10 -4 -10 -10z"/>
<path d="M2560 1319 c0 -5 5 -7 10 -4 6 3 10 8 10 11 0 2 -4 4 -10 4 -5 0 -10
-5 -10 -11z"/>
<path d="M2886 1312 c-3 -6 -1 -14 5 -17 15 -10 25 3 12 16 -7 7 -13 7 -17 1z"/>
<path d="M4585 1300 c-3 -5 -1 -10 4 -10 6 0 11 5 11 10 0 6 -2 10 -4 10 -3 0
-8 -4 -11 -10z"/>
<path d="M2545 1290 c3 -5 8 -10 11 -10 2 0 4 5 4 10 0 6 -5 10 -11 10 -5 0
-7 -4 -4 -10z"/>
<path d="M4695 1290 c-3 -5 -1 -10 4 -10 6 0 11 5 11 10 0 6 -2 10 -4 10 -3 0
-8 -4 -11 -10z"/>
<path d="M4304 1233 c3 -27 33 -56 48 -47 10 6 -21 61 -38 68 -8 3 -12 -4 -10
-21z"/>
<path d="M2716 1236 c6 -16 34 -30 34 -18 0 10 -22 32 -32 32 -4 0 -5 -6 -2
-14z"/>
<path d="M3725 1240 c-3 -5 1 -10 9 -10 9 0 16 5 16 10 0 6 -4 10 -9 10 -6 0
-13 -4 -16 -10z"/>
<path d="M2770 1230 c0 -5 5 -10 11 -10 5 0 7 -4 4 -10 -3 -5 -15 -10 -26 -10
-10 0 -19 -4 -19 -10 0 -5 5 -10 11 -10 6 0 8 -9 3 -22 -4 -13 -8 -33 -8 -44
-1 -12 -7 -29 -14 -37 -10 -11 -10 -17 -1 -22 8 -6 8 -10 -2 -15 -9 -6 -9 -12
4 -25 10 -9 17 -21 17 -26 0 -13 27 -11 36 2 3 6 0 15 -7 20 -12 8 -12 11 1
19 22 14 33 12 26 -5 -7 -18 5 -20 23 -2 10 10 10 7 0 -16 -11 -24 -10 -30 10
-51 l23 -24 -21 -7 c-11 -3 -26 -3 -33 1 -6 4 -28 10 -48 14 -37 7 -37 6 -34
-24 1 -17 3 -38 3 -48 1 -10 14 -19 38 -25 31 -7 41 -5 56 10 10 10 15 22 11
28 -3 5 4 18 15 28 12 10 21 24 21 32 0 10 3 10 12 1 22 -22 29 -13 8 10 -11
12 -17 24 -13 27 16 12 14 59 -2 65 -9 3 -13 2 -10 -4 3 -6 3 -10 0 -10 -14 0
-75 32 -75 39 0 17 14 19 25 4 12 -16 14 -16 30 1 15 15 16 19 4 27 -19 12
-46 11 -54 -1 -7 -12 -35 -14 -35 -2 0 4 14 16 31 26 23 14 28 21 18 27 -7 4
-14 23 -15 41 -1 18 -2 36 -3 41 -2 11 -21 9 -21 -3z"/>
<path d="M3870 1216 c0 -9 5 -16 10 -16 6 0 10 4 10 9 0 6 -4 13 -10 16 -5 3
-10 -1 -10 -9z"/>
<path d="M4235 1220 c-3 -5 -2 -10 4 -10 5 0 13 5 16 10 3 6 2 10 -4 10 -5 0
-13 -4 -16 -10z"/>
<path d="M4266 1212 c-3 -6 -1 -14 5 -17 15 -10 25 3 12 16 -7 7 -13 7 -17 1z"/>
<path d="M3137 1199 c7 -7 15 -10 18 -7 3 3 -2 9 -12 12 -14 6 -15 5 -6 -5z"/>
<path d="M3670 1190 c0 -5 5 -10 11 -10 5 0 7 5 4 10 -3 6 -8 10 -11 10 -2 0
-4 -4 -4 -10z"/>
<path d="M4515 1180 c3 -5 8 -10 11 -10 2 0 4 5 4 10 0 6 -5 10 -11 10 -5 0
-7 -4 -4 -10z"/>
<path d="M4610 1180 c0 -5 4 -10 9 -10 6 0 13 5 16 10 3 6 -1 10 -9 10 -9 0
-16 -4 -16 -10z"/>
<path d="M2872 1149 c4 -28 33 -37 42 -13 4 12 2 15 -9 10 -8 -3 -14 0 -12 6
1 6 -4 13 -11 15 -10 4 -13 -2 -10 -18z"/>
<path d="M2986 1144 c-8 -21 1 -34 25 -34 24 0 25 22 0 37 -16 10 -20 9 -25
-3z"/>
<path d="M2950 1140 c0 -6 -11 -16 -25 -22 -34 -15 -32 -25 5 -20 16 2 27 8
24 14 -3 5 0 15 6 23 9 11 9 15 1 15 -6 0 -11 -5 -11 -10z"/>
<path d="M3235 1140 c3 -5 11 -10 16 -10 6 0 7 5 4 10 -3 6 -11 10 -16 10 -6
0 -7 -4 -4 -10z"/>
<path d="M4645 1140 c3 -5 8 -10 11 -10 2 0 4 5 4 10 0 6 -5 10 -11 10 -5 0
-7 -4 -4 -10z"/>
<path d="M4450 1130 c0 -5 6 -10 14 -10 8 0 18 5 21 10 3 6 -3 10 -14 10 -12
0 -21 -4 -21 -10z"/>
<path d="M3855 1120 c-3 -5 -2 -10 4 -10 5 0 13 5 16 10 3 6 2 10 -4 10 -5 0
-13 -4 -16 -10z"/>
<path d="M4505 1110 c-4 -6 3 -10 14 -10 25 0 27 6 6 13 -8 4 -17 2 -20 -3z"/>
<path d="M3570 1101 c0 -5 7 -11 15 -15 8 -3 15 -1 15 3 0 5 -7 11 -15 15 -8
3 -15 1 -15 -3z"/>
<path d="M3055 1090 c-3 -5 -1 -10 4 -10 6 0 11 5 11 10 0 6 -2 10 -4 10 -3 0
-8 -4 -11 -10z"/>
<path d="M4565 1090 c-3 -5 1 -10 9 -10 9 0 16 5 16 10 0 6 -4 10 -9 10 -6 0
-13 -4 -16 -10z"/>
<path d="M2903 1045 c-3 -9 -3 -18 -1 -21 3 -3 8 4 11 16 6 23 -1 27 -10 5z"/>
<path d="M3450 1053 c0 -16 52 -35 63 -24 14 14 7 19 -31 27 -18 4 -32 2 -32
-3z"/>
<path d="M3725 1030 c-3 -5 3 -10 15 -10 12 0 18 5 15 10 -3 6 -10 10 -15 10
-5 0 -12 -4 -15 -10z"/>
<path d="M4320 1024 c0 -8 5 -12 10 -9 6 4 8 11 5 16 -9 14 -15 11 -15 -7z"/>
<path d="M3440 1020 c0 -5 5 -10 11 -10 5 0 7 5 4 10 -3 6 -8 10 -11 10 -2 0
-4 -4 -4 -10z"/>
<path d="M4470 1019 c0 -5 5 -7 10 -4 6 3 10 8 10 11 0 2 -4 4 -10 4 -5 0 -10
-5 -10 -11z"/>
<path d="M4410 985 c0 -20 5 -25 24 -25 27 0 40 22 23 39 -21 21 -47 13 -47
-14z"/>
<path d="M2794 961 c4 -6 16 -16 28 -22 15 -8 18 -8 14 0 -4 6 -16 16 -28 22
-15 8 -18 8 -14 0z"/>
<path d="M4035 960 c3 -5 8 -10 11 -10 2 0 4 5 4 10 0 6 -5 10 -11 10 -5 0 -7
-4 -4 -10z"/>
<path d="M4998 852 c-38 -23 -36 -35 2 -14 16 9 30 20 30 25 0 9 1 9 -32 -11z"/>
<path d="M3648 838 c5 -5 16 -8 23 -6 8 3 3 7 -10 11 -17 4 -21 3 -13 -5z"/>
<path d="M3875 840 c3 -5 11 -10 16 -10 6 0 7 5 4 10 -3 6 -11 10 -16 10 -6 0
-7 -4 -4 -10z"/>
<path d="M3128 823 c7 -3 16 -2 19 1 4 3 -2 6 -13 5 -11 0 -14 -3 -6 -6z"/>
<path d="M3736 822 c-2 -4 -1 -14 5 -22 7 -12 9 -10 9 8 0 23 -5 28 -14 14z"/>
<path d="M3605 810 c-3 -5 -2 -10 4 -10 5 0 13 5 16 10 3 6 2 10 -4 10 -5 0
-13 -4 -16 -10z"/>
<path d="M3440 790 c0 -5 5 -10 10 -10 6 0 10 5 10 10 0 6 -4 10 -10 10 -5 0
-10 -4 -10 -10z"/>
<path d="M2810 760 c0 -5 5 -10 10 -10 6 0 10 5 10 10 0 6 -4 10 -10 10 -5 0
-10 -4 -10 -10z"/>
<path d="M3085 670 c3 -5 8 -10 11 -10 2 0 4 5 4 10 0 6 -5 10 -11 10 -5 0 -7
-4 -4 -10z"/>
</g>
</svg>
